<svg width="800" height="800" viewBox="0 0 800 800" fill="none" xmlns="http://www.w3.org/2000/svg">
<path d="M700 333.334C708.84 333.334 717.319 336.845 723.57 343.097C729.821 349.348 733.333 357.826 733.333 366.667V500C733.333 508.841 729.821 517.319 723.57 523.57C717.319 529.822 708.84 533.334 700 533.334C691.159 533.334 682.681 529.822 676.43 523.57C670.178 517.319 666.667 508.841 666.667 500V366.667C666.667 357.826 670.178 349.348 676.43 343.097C682.681 336.845 691.159 333.334 700 333.334ZM100 533.334C108.841 533.334 117.319 529.822 123.57 523.57C129.821 517.319 133.333 508.841 133.333 500V366.667C133.333 357.826 129.821 349.348 123.57 343.097C117.319 336.845 108.841 333.334 100 333.334C91.1594 333.334 82.6809 336.845 76.4297 343.097C70.1785 349.348 66.6666 357.826 66.6666 366.667V500C66.6666 508.841 70.1785 517.319 76.4297 523.57C82.6809 529.822 91.1594 533.334 100 533.334ZM586 159.7C616.69 200.036 633.316 249.317 633.333 300V600C633.333 608.841 629.821 617.319 623.57 623.57C617.319 629.822 608.84 633.334 600 633.334H533.333V733.334C533.333 742.174 529.821 750.653 523.57 756.904C517.319 763.155 508.84 766.667 500 766.667C491.159 766.667 482.681 763.155 476.43 756.904C470.179 750.653 466.667 742.174 466.667 733.334V633.334H333.333V733.334C333.333 742.174 329.821 750.653 323.57 756.904C317.319 763.155 308.841 766.667 300 766.667C291.159 766.667 282.681 763.155 276.43 756.904C270.179 750.653 266.667 742.174 266.667 733.334V633.334H200C191.159 633.334 182.681 629.822 176.43 623.57C170.179 617.319 166.667 608.841 166.667 600V300C166.684 249.317 183.31 200.036 214 159.7C204.467 152.734 182.6 129.134 143.1 90.2336C137.028 83.9468 133.668 75.5267 133.744 66.7868C133.82 58.047 137.326 49.6865 143.506 43.5063C149.686 37.326 158.047 33.8204 166.787 33.7444C175.526 33.6685 183.947 37.0283 190.233 43.1002C237.2 90.8002 252.333 103.867 259.7 114C300.027 83.2953 349.314 66.6676 400 66.6676C450.686 66.6676 499.973 83.2953 540.3 114C547.267 104.434 568.367 85.1336 609.767 43.1002C616.053 37.0283 624.473 33.6685 633.213 33.7444C641.953 33.8204 650.314 37.326 656.494 43.5063C662.674 49.6865 666.18 58.047 666.256 66.7868C666.332 75.5267 662.972 83.9468 656.9 90.2336C609.4 137.034 596.133 152.334 586 159.7ZM233.333 300V333.334H566.667V300C566.667 255.797 549.107 213.405 517.851 182.149C486.595 150.893 444.203 133.334 400 133.334C355.797 133.334 313.405 150.893 282.149 182.149C250.893 213.405 233.333 255.797 233.333 300ZM566.667 400H233.333V566.667H566.667V400ZM333.333 266.667C339.926 266.667 346.371 264.712 351.852 261.049C357.334 257.386 361.606 252.181 364.129 246.09C366.652 239.999 367.312 233.297 366.026 226.831C364.74 220.365 361.565 214.425 356.904 209.763C352.242 205.102 346.302 201.927 339.836 200.641C333.37 199.355 326.668 200.015 320.577 202.538C314.486 205.06 309.28 209.333 305.618 214.815C301.955 220.296 300 226.741 300 233.334C300 242.174 303.512 250.653 309.763 256.904C316.014 263.155 324.493 266.667 333.333 266.667ZM466.667 266.667C473.259 266.667 479.704 264.712 485.186 261.049C490.667 257.386 494.94 252.181 497.463 246.09C499.986 239.999 500.646 233.297 499.359 226.831C498.073 220.365 494.899 214.425 490.237 209.763C485.575 205.102 479.636 201.927 473.17 200.641C466.704 199.355 460.001 200.015 453.91 202.538C447.82 205.06 442.614 209.333 438.951 214.815C435.288 220.296 433.333 226.741 433.333 233.334C433.333 242.174 436.845 250.653 443.096 256.904C449.348 263.155 457.826 266.667 466.667 266.667Z" fill="white"/>
</svg>
