<svg width="32" height="32" viewBox="0 0 32 32" fill="none" xmlns="http://www.w3.org/2000/svg">
<g clip-path="url(#clip0_1554_2577)">
<path d="M30 30.3596H24C23.801 30.3596 23.64 30.1986 23.64 29.9996V27.3596H19.36V29.9996C19.36 30.1986 19.199 30.3596 19 30.3596H13C12.801 30.3596 12.64 30.1986 12.64 29.9996V27.3596H8.36001V29.9996C8.36001 30.1986 8.19901 30.3596 8.00001 30.3596H2.00001C1.80101 30.3596 1.64001 30.1986 1.64001 29.9996V23.9996C1.64001 23.8006 1.80101 23.6396 2.00001 23.6396H4.64001V19.3596H2.00001C1.80101 19.3596 1.64001 19.1986 1.64001 18.9996V12.9996C1.64001 12.8006 1.80101 12.6396 2.00001 12.6396H4.64001V8.35965H2.00001C1.80101 8.35965 1.64001 8.19865 1.64001 7.99965V1.99965C1.64001 1.80065 1.80101 1.63965 2.00001 1.63965H8.00001C8.19901 1.63965 8.36001 1.80065 8.36001 1.99965V4.63965H12.64V1.99965C12.64 1.80065 12.801 1.63965 13 1.63965H19C19.199 1.63965 19.36 1.80065 19.36 1.99965V4.63965H23.639V1.99965C23.639 1.80065 23.8 1.63965 23.999 1.63965H29.999C30.198 1.63965 30.359 1.80065 30.359 1.99965V7.99965C30.359 8.19865 30.198 8.35965 29.999 8.35965H27.359V12.6396H30C30.199 12.6396 30.36 12.8006 30.36 12.9996V18.9996C30.36 19.1986 30.199 19.3596 30 19.3596H27.36V23.6386H30C30.199 23.6386 30.36 23.7996 30.36 23.9986V29.9986C30.36 30.1986 30.199 30.3596 30 30.3596ZM24.36 29.6396H29.639V24.3596H24.36V29.6396ZM13.36 29.6396H18.64V24.3596H13.36V29.6396ZM2.36001 29.6396H7.64001V24.3596H2.36001V29.6396ZM19.36 26.6396H23.639V23.9996C23.639 23.8006 23.8 23.6396 23.999 23.6396H26.639V19.3596H24C23.801 19.3596 23.64 19.1986 23.64 18.9996V16.3596H19.36V18.9996C19.36 19.1986 19.199 19.3596 19 19.3596H16.36V23.6386H19C19.199 23.6386 19.36 23.7996 19.36 23.9986V26.6396ZM8.36001 26.6396H12.64V23.9996C12.64 23.8006 12.801 23.6396 13 23.6396H15.64V19.3596H13C12.801 19.3596 12.64 19.1986 12.64 18.9996V16.3596H8.36001V18.9996C8.36001 19.1986 8.19901 19.3596 8.00001 19.3596H5.36001V23.6386H8.00001C8.19901 23.6386 8.36001 23.7996 8.36001 23.9986V26.6396ZM27 18.6396H29.64V13.3596H24.36V18.6396H27ZM16 18.6396H18.64V13.3596H13.36V18.6396H16ZM5.00001 18.6396H7.64001V13.3596H2.36001V18.6396H5.00001ZM19.36 15.6396H23.639V12.9996C23.639 12.8006 23.8 12.6396 23.999 12.6396H26.639V8.35965H24C23.801 8.35965 23.64 8.19865 23.64 7.99965V5.35965H19.36V7.99965C19.36 8.19865 19.199 8.35965 19 8.35965H16.36V12.6396H19C19.199 12.6396 19.36 12.8006 19.36 12.9996V15.6396ZM8.36001 15.6396H12.64V12.9996C12.64 12.8006 12.801 12.6396 13 12.6396H15.64V8.35965H13C12.801 8.35965 12.64 8.19865 12.64 7.99965V5.35965H8.36001V7.99965C8.36001 8.19865 8.19901 8.35965 8.00001 8.35965H5.36001V12.6396H8.00001C8.19901 12.6396 8.36001 12.8006 8.36001 12.9996V15.6396ZM27 7.63965H29.64V2.35965H24.36V7.63965H27ZM16 7.63965H18.64V2.35965H13.36V7.63965H16ZM5.00001 7.63965H7.64001V2.35965H2.36001V7.63965H5.00001Z" fill="white"/>
</g>
<defs>
<clipPath id="clip0_1554_2577">
<rect width="32" height="32" fill="white"/>
</clipPath>
</defs>
</svg>
