<svg width="12" height="12" viewBox="0 0 12 12" fill="none" xmlns="http://www.w3.org/2000/svg">
<path fill-rule="evenodd" clip-rule="evenodd" d="M3.0495 3H8.95C10.632 3 12 4.346 12 6C12 7.654 10.632 9 8.9505 9H3.05C1.368 9 0 7.654 0 6C0 4.346 1.368 3 3.0495 3ZM5.759 7.65C5.833 7.727 5.9425 7.723 6.0395 7.703L6.0405 7.7035C6.0855 7.6675 6.0215 7.622 5.9605 7.5785C5.9235 7.5525 5.888 7.5275 5.8775 7.505C5.9115 7.465 5.811 7.3725 5.733 7.301C5.70632 7.2781 5.68126 7.25337 5.658 7.227C5.603 7.1675 5.5805 7.093 5.558 7.018C5.543 6.968 5.528 6.918 5.503 6.872C5.351 6.525 5.1765 6.1805 4.9315 5.887C4.774 5.692 4.5945 5.517 4.415 5.342C4.29832 5.2302 4.18445 5.1155 4.0735 4.998C3.9605 4.8835 3.8925 4.7425 3.824 4.601C3.767 4.483 3.71 4.3645 3.626 4.261C3.3725 3.8935 2.5725 3.793 2.455 4.313C2.455 4.329 2.45 4.339 2.4355 4.3495C2.3705 4.3965 2.313 4.4495 2.2645 4.513C2.1455 4.676 2.1275 4.9515 2.2755 5.098L2.276 5.0885C2.281 5.015 2.286 4.9455 2.3455 4.893C2.4595 4.9895 2.6335 5.024 2.766 4.9515C2.926 5.1765 2.977 5.449 3.0285 5.7215C3.071 5.9495 3.1135 6.1775 3.2195 6.3795L3.2265 6.3905C3.2885 6.492 3.3515 6.5955 3.4315 6.684C3.461 6.7285 3.5205 6.776 3.58 6.8235C3.6585 6.886 3.737 6.9485 3.7445 7.003V7.0745C3.744 7.217 3.7435 7.3645 3.8365 7.481C3.888 7.5835 3.7615 7.686 3.6605 7.6735C3.6045 7.681 3.544 7.6665 3.4835 7.6525C3.401 7.6325 3.319 7.6135 3.2525 7.651C3.2335 7.671 3.207 7.671 3.18 7.672C3.148 7.673 3.1155 7.674 3.0965 7.707C3.0925 7.7165 3.0835 7.727 3.074 7.7385C3.053 7.7635 3.0305 7.791 3.0575 7.8115L3.065 7.8065C3.106 7.7755 3.145 7.7465 3.2 7.7645C3.193 7.8045 3.2195 7.8155 3.246 7.826L3.2595 7.832C3.25894 7.84143 3.2576 7.85079 3.2555 7.86C3.251 7.8825 3.247 7.904 3.2645 7.9235C3.27269 7.91496 3.28037 7.90595 3.2875 7.8965C3.306 7.8735 3.324 7.8505 3.357 7.8415C3.429 7.9365 3.5015 7.897 3.5925 7.848C3.6955 7.7925 3.822 7.724 3.9975 7.8205C3.93 7.8175 3.87 7.8255 3.825 7.8805C3.8135 7.8925 3.804 7.9065 3.824 7.9225C3.9275 7.8565 3.971 7.88 4.0115 7.9025C4.0415 7.9185 4.069 7.934 4.1175 7.9145L4.1525 7.8965C4.23 7.855 4.3095 7.8135 4.402 7.828C4.3325 7.8475 4.308 7.8905 4.281 7.937C4.268 7.9605 4.254 7.9845 4.234 8.007C4.2235 8.0175 4.219 8.03 4.2305 8.047C4.3755 8.0355 4.4305 7.9995 4.5045 7.951C4.5395 7.928 4.5795 7.9015 4.635 7.874C4.697 7.8365 4.759 7.8605 4.819 7.884C4.884 7.909 4.9465 7.933 5.0045 7.877C5.023 7.8605 5.046 7.86 5.069 7.86C5.077 7.86 5.0855 7.86 5.094 7.859C5.0755 7.764 4.974 7.765 4.87 7.766C4.75 7.7675 4.6285 7.769 4.6325 7.6215C4.7435 7.547 4.7445 7.418 4.7455 7.296C4.7455 7.266 4.7455 7.2375 4.748 7.2095C4.8295 7.2545 4.916 7.2895 5.002 7.324C5.083 7.3565 5.1635 7.389 5.239 7.429C5.318 7.554 5.441 7.719 5.605 7.708C5.609 7.695 5.613 7.6845 5.618 7.6715C5.6275 7.6735 5.6375 7.6755 5.6475 7.6785C5.6905 7.6885 5.7365 7.7 5.759 7.65ZM8.9735 6.2355C9.0685 6.3285 9.197 6.3805 9.3315 6.3805C9.466 6.3805 9.5945 6.3285 9.6895 6.2355C9.73632 6.19 9.77358 6.13559 9.79908 6.07549C9.82458 6.01539 9.83781 5.95079 9.838 5.8855C9.83781 5.82021 9.82458 5.75561 9.79908 5.69551C9.77358 5.63541 9.73632 5.581 9.6895 5.5355C9.61956 5.46724 9.53156 5.42043 9.43587 5.40058C9.34018 5.38074 9.24081 5.38869 9.1495 5.4235L8.8595 5.008L8.657 5.144L8.9485 5.5615C8.86534 5.65557 8.82155 5.77803 8.82621 5.9035C8.83086 6.02897 8.8836 6.14785 8.9735 6.2355ZM8.065 4.8905C8.14905 4.9312 8.24258 4.94827 8.33558 4.93991C8.42859 4.93154 8.51757 4.89804 8.593 4.843C8.6792 4.78023 8.74285 4.69133 8.7745 4.5895C8.80583 4.48808 8.80302 4.37917 8.7665 4.2795C8.72941 4.17932 8.66103 4.09376 8.5715 4.0355C8.47195 3.9702 8.35283 3.94149 8.23446 3.95425C8.1161 3.96702 8.00583 4.02048 7.9225 4.1055C7.86839 4.16142 7.82827 4.22935 7.80542 4.30373C7.78256 4.37811 7.77762 4.45684 7.791 4.5335C7.80507 4.60992 7.83712 4.6819 7.8845 4.7435C7.932 4.806 7.994 4.856 8.065 4.8905ZM8.065 7.7665C8.14907 7.80709 8.24258 7.82411 8.33557 7.81574C8.42855 7.80738 8.51752 7.77394 8.593 7.719C8.6792 7.65623 8.74285 7.56733 8.7745 7.4655C8.80583 7.36408 8.80302 7.25517 8.7665 7.1555C8.72941 7.05532 8.66103 6.96976 8.5715 6.9115C8.47198 6.84611 8.35284 6.81734 8.23445 6.83011C8.11606 6.84287 8.00578 6.89639 7.9225 6.9815C7.86836 7.0374 7.82821 7.10532 7.80536 7.17971C7.7825 7.2541 7.77758 7.33284 7.791 7.4095C7.80507 7.48592 7.83712 7.5579 7.8845 7.6195C7.932 7.682 7.994 7.732 8.065 7.7665ZM8.53 6.0085V5.7625H7.755C7.73537 5.68751 7.69818 5.61827 7.6465 5.5605L7.9385 5.137L7.726 4.999L7.4345 5.4225C7.34514 5.39137 7.2489 5.38564 7.15648 5.40594C7.06406 5.42624 6.97908 5.47178 6.911 5.5375C6.86435 5.58269 6.82722 5.63676 6.8018 5.69653C6.77638 5.7563 6.76319 5.82055 6.763 5.8855C6.763 6.016 6.8165 6.1415 6.911 6.2335C6.97908 6.29922 7.06406 6.34476 7.15648 6.36506C7.2489 6.38536 7.34514 6.37963 7.4345 6.3485L7.726 6.772L7.936 6.634L7.6465 6.2105C7.69818 6.15273 7.73537 6.08349 7.755 6.0085H8.53Z" fill="white"/>
</svg>
