<svg width="12" height="12" viewBox="0 0 12 12" fill="none" xmlns="http://www.w3.org/2000/svg">
<path fill-rule="evenodd" clip-rule="evenodd" d="M7.045 7.6035C7.0115 7.6585 6.911 7.6615 6.825 7.611C6.78397 7.58802 6.75085 7.55316 6.73 7.511C6.714 7.4755 6.7135 7.442 6.729 7.4165C6.7465 7.388 6.783 7.3735 6.826 7.3735C6.8645 7.3735 6.9085 7.385 6.949 7.409C7.034 7.4595 7.0785 7.549 7.045 7.6035ZM12 6C12 7.654 10.632 9 8.9505 9H3.05C1.368 9 0 7.6545 0 6C0 4.3455 1.368 3 3.0495 3H8.95C10.632 3 12 4.346 12 6ZM5.877 7.505C5.925 7.447 5.703 7.2855 5.6575 7.2265C5.5655 7.128 5.565 6.9865 5.5025 6.8715C5.3505 6.5245 5.1755 6.18 4.931 5.8865C4.672 5.565 4.353 5.299 4.073 4.9975C3.8645 4.787 3.809 4.4875 3.6255 4.2605C3.372 3.893 2.5715 3.7925 2.454 4.312C2.4545 4.3285 2.4495 4.3385 2.435 4.349C2.37 4.3955 2.3125 4.4485 2.264 4.5125C2.145 4.675 2.127 4.951 2.275 5.0975C2.28 5.0205 2.2825 4.9475 2.345 4.8925C2.4595 4.9895 2.6325 5.0235 2.765 4.951C3.059 5.3635 2.986 5.9345 3.219 6.379C3.284 6.484 3.3485 6.5915 3.431 6.6835C3.4985 6.786 3.73 6.9075 3.7435 7.0025C3.746 7.1655 3.7265 7.344 3.8355 7.4805C3.8865 7.583 3.7605 7.6855 3.6595 7.673C3.5275 7.6905 3.367 7.5855 3.2515 7.65C3.2105 7.6935 3.131 7.6455 3.0955 7.706C3.0835 7.737 3.0175 7.781 3.057 7.811C3.1005 7.7785 3.141 7.7445 3.2 7.7635C3.191 7.811 3.229 7.8175 3.259 7.831C3.258 7.863 3.239 7.896 3.264 7.923C3.293 7.894 3.31 7.853 3.3565 7.8415C3.5095 8.042 3.6655 7.638 3.9965 7.82C3.9295 7.817 3.87 7.825 3.8245 7.8795C3.813 7.8915 3.8035 7.906 3.8235 7.922C4.0025 7.8085 4.0015 7.961 4.1175 7.914C4.2065 7.868 4.2955 7.811 4.4015 7.827C4.2985 7.8565 4.2945 7.938 4.234 8.007C4.224 8.017 4.219 8.0295 4.2305 8.047C4.445 8.029 4.4625 7.959 4.6355 7.873C4.7645 7.7955 4.893 7.9835 5.0045 7.8765C5.0295 7.8535 5.063 7.8615 5.0935 7.858C5.0545 7.653 4.6255 7.8955 4.632 7.621C4.77 7.5285 4.7385 7.3515 4.748 7.209C4.9065 7.2955 5.083 7.346 5.239 7.429C5.3175 7.5535 5.4405 7.7185 5.605 7.7075L5.6175 7.6715C5.6675 7.68 5.7315 7.712 5.759 7.65C5.833 7.727 5.9425 7.723 6.0395 7.7035C6.1115 7.6455 5.9045 7.5635 5.8765 7.5045L5.877 7.505ZM8.103 6.537L7.7765 6.1035C7.4915 6.4245 7.3015 6.5805 7.298 6.5835C7.296 6.585 7.1145 6.759 6.949 6.9085C6.7865 7.055 6.658 7.1705 6.5925 7.2975C6.57287 7.3438 6.56259 7.39352 6.56225 7.4438C6.56191 7.49408 6.57151 7.54394 6.5905 7.5905C6.633 7.6905 6.7195 7.7615 6.848 7.802C6.8865 7.814 6.923 7.819 6.9585 7.819C7.19 7.819 7.342 7.5905 7.343 7.589C7.345 7.586 7.542 7.309 7.7815 6.96C7.8615 6.844 7.9525 6.721 8.103 6.537ZM9.638 7.5355C9.63792 7.47137 9.61404 7.40954 9.571 7.362L9.5305 7.317L8.413 6.0715C8.17924 5.80658 7.95299 5.53514 7.7345 5.2575L7.6935 5.1735V5.0255C7.69337 4.97151 7.68232 4.9181 7.661 4.8685L7.574 4.6645C7.5725 4.6615 7.572 4.658 7.5725 4.655L7.576 4.6265C7.576 4.622 7.5785 4.618 7.5825 4.615C7.78267 4.45076 8.03692 4.36714 8.2955 4.3805C8.347 4.3825 8.3555 4.3555 8.3575 4.3435C8.3645 4.2865 8.2325 4.22 8.1105 4.195C7.942 4.1615 7.4945 4.0715 7.137 4.3025L7.134 4.3045C6.903 4.4945 6.717 4.6395 6.715 4.6415L6.711 4.6455C6.69071 4.6702 6.6756 4.69874 6.66658 4.72941C6.65756 4.76008 6.65481 4.79225 6.6585 4.824C6.6685 4.8875 6.6355 4.9105 6.6335 4.9115C6.6315 4.913 6.5855 4.9415 6.5385 4.909C6.481 4.867 6.3815 4.939 6.361 4.9555L6.211 5.0825L6.208 5.0855C6.205 5.0885 6.1405 5.1625 6.227 5.2815C6.3015 5.3845 6.3275 5.419 6.392 5.498C6.458 5.578 6.576 5.68 6.5825 5.685C6.5855 5.6875 6.6575 5.7415 6.7575 5.6665C6.839 5.6045 6.9045 5.549 6.9045 5.549C6.9095 5.5445 6.9575 5.5065 6.9595 5.4495V5.4065C6.958 5.3665 6.958 5.3545 6.9885 5.3355C7.0035 5.3355 7.048 5.3515 7.0865 5.3705C7.14415 5.40252 7.20859 5.42035 7.2745 5.4225C7.3295 5.4295 7.3905 5.4915 7.4115 5.5165C7.4135 5.5185 7.6 5.7115 7.8625 6.0485C7.9125 6.113 8.0965 6.3535 8.1465 6.4205L8.494 6.886C8.731 7.203 8.996 7.5585 9.1165 7.7185C9.1565 7.7715 9.215 7.8075 9.281 7.82L9.326 7.8285C9.37267 7.8381 9.42108 7.8348 9.46601 7.81894C9.51094 7.80308 9.5507 7.77527 9.581 7.7385L9.583 7.735C9.61894 7.68944 9.63833 7.63303 9.638 7.575V7.535V7.5355ZM9.848 4.6885L9.7955 4.6375C9.78791 4.63001 9.77885 4.62417 9.7689 4.62034C9.75895 4.61651 9.74831 4.61478 9.73766 4.61524C9.72701 4.61571 9.71656 4.61838 9.70699 4.62307C9.69741 4.62776 9.6889 4.63437 9.682 4.6425L9.3555 5.0225C9.3461 5.03339 9.33283 5.0402 9.3185 5.0415L9.2025 5.053C9.1951 5.05375 9.18763 5.05303 9.1805 5.05089C9.17338 5.04874 9.16675 5.04521 9.161 5.0405L8.9755 4.8855C8.96959 4.88068 8.96475 4.87468 8.96131 4.86787C8.95786 4.86107 8.95588 4.85362 8.9555 4.846L8.953 4.7545C8.95248 4.7412 8.95694 4.72819 8.9655 4.718L9.2835 4.3415C9.29525 4.32788 9.30172 4.31049 9.30172 4.2925C9.30172 4.27451 9.29525 4.25712 9.2835 4.2435L9.251 4.2065C9.24064 4.19462 9.22692 4.18617 9.21166 4.18224C9.1964 4.17831 9.18031 4.1791 9.1655 4.1845C9.02841 4.23467 8.89435 4.29277 8.764 4.3585C8.5705 4.461 8.436 4.624 8.413 4.7835C8.396 4.9005 8.403 5.0935 8.409 5.1975C8.41117 5.23896 8.40164 5.28019 8.3815 5.3165C8.3565 5.362 8.3125 5.435 8.246 5.523C8.2115 5.569 8.19 5.5865 8.161 5.6205L8.5205 6.0365C8.607 5.937 8.683 5.8615 8.749 5.789C8.8695 5.657 8.907 5.6555 9.0075 5.6525C9.0695 5.65 9.1545 5.6475 9.289 5.6145C9.656 5.5245 9.772 5.1335 9.777 5.116L9.868 4.761C9.8712 4.7483 9.87104 4.73498 9.86753 4.72235C9.86403 4.70973 9.85729 4.69823 9.848 4.689V4.6885ZM4.205 7.1665C4.165 7.318 4.1525 7.5765 3.952 7.584C3.9355 7.6715 4.0135 7.7045 4.0845 7.6765C4.155 7.6445 4.1885 7.7015 4.2125 7.7585C4.321 7.774 4.4825 7.7225 4.488 7.596C4.3255 7.504 4.2755 7.3285 4.2045 7.166L4.205 7.1665Z" fill="white"/>
</svg>
