<svg width="12" height="12" viewBox="0 0 12 12" fill="none" xmlns="http://www.w3.org/2000/svg">
<g clip-path="url(#clip0_512_1835)">
<path fill-rule="evenodd" clip-rule="evenodd" d="M3.7655 7.988C4.47139 7.28163 4.86791 6.32387 4.86791 5.32525C4.86791 4.32663 4.47139 3.36887 3.7655 2.6625L1.103 0C0.396975 0.706432 0.000255411 1.66424 0 2.663C0 3.661 0.397 4.6195 1.103 5.3255L3.7655 7.988ZM9.337 8.2345C8.63058 7.52889 7.67296 7.13255 6.6745 7.13255C5.67604 7.13255 4.71842 7.52889 4.012 8.2345L6.6745 10.897C7.381 11.6026 8.33871 11.999 9.33725 11.999C10.3358 11.999 11.2935 11.6026 12 10.897L9.337 8.2345ZM1.109 10.891C1.8154 11.5971 2.77323 11.9938 3.772 11.994V8.2285H0.006C0.006 9.2265 0.4035 10.1855 1.109 10.891ZM10.365 4.2975C9.65856 3.59168 8.70077 3.19525 7.70215 3.19534C6.70353 3.19544 5.74581 3.59205 5.0395 4.298L7.702 6.961L10.365 4.2975Z" fill="white"/>
</g>
<defs>
<clipPath id="clip0_512_1835">
<rect width="12" height="12" fill="white"/>
</clipPath>
</defs>
</svg>
