<svg width="800" height="299" viewBox="0 0 800 299" fill="none" xmlns="http://www.w3.org/2000/svg">
<path d="M696.333 259.567V298.367H762.4C783.3 297.667 800 280.567 800 259.567C800 259.133 800 258.733 799.967 258.3V258.367V243.367C800 242.9 800 242.367 800 241.8C800 220.867 783.267 203.833 762.433 203.367H729.467V185.367H794.733V146.633H732.1C711 147.567 694.233 164.933 694.233 186.2V187.2V187.167V200.667C694.233 201 694.2 201.433 694.2 201.833C694.2 222.933 711 240.1 731.967 240.667H732.033C777.367 240.867 721.133 240.667 763.167 240.667V259.533L696.3 259.733L696.333 259.567ZM342.233 250.133C342.233 250.133 377.6 246.9 377.6 198.467C377.7 197.367 377.733 196.1 377.733 194.833C377.733 169.733 359.167 149 335.033 145.567L334.767 145.533H257.633V298.367H296.433V261.5L329.967 298.367H387.367L342.233 250.133ZM327.267 218.833H296.4V183.9H327.533C332.833 186.933 336.367 192.533 336.367 199C336.367 199.8 336.3 200.6 336.2 201.367V201.267C336.267 201.9 336.333 202.633 336.333 203.4C336.333 210 332.733 215.733 327.4 218.8L327.3 218.833H327.267ZM473.4 146.6H434.067C413.133 147.5 396.5 164.7 396.5 185.8V186.633V298.6H435.9V271.933H472.9V298.6H511.033V186.6C511.067 186.067 511.067 185.467 511.067 184.867C511.067 163.967 494.3 146.967 473.467 146.633H473.433L473.4 146.6ZM472.9 228.267H435.567V191.133C435.567 191.133 435.567 182.8 447.9 182.8H461.433C472.333 182.8 472.567 191.133 472.567 191.133V228.233L472.9 228.267ZM528.9 146.6H569.9V298.367H528.9V146.6ZM627.567 259.133V146.6H586.8V298.367H682.8V259.133H627.567Z" fill="white"/>
<path d="M14.1333 298.367H173.8C173.8 298.367 143.3 150.7 244.333 90.8668C266.367 79.5001 336.467 37.0668 451.267 127.067C454.9 123.833 458.333 121.267 458.333 121.267C458.333 121.267 353.233 10.0335 236.233 22.4668C177.433 28.0335 105.1 84.8335 62.6666 159.867C39 199.733 21.9666 246.4 14.4333 296.2L14.1666 298.333L14.1333 298.367Z" fill="white"/>
<path d="M14.1333 298.334H173.8C173.8 298.334 143.3 150.667 244.333 90.8338C266.367 79.4671 336.467 37.0338 451.267 127.034C454.9 123.8 458.333 121.234 458.333 121.234C458.333 121.234 353.233 10.0338 236.233 22.4671C177.233 28.0338 104.9 84.8338 62.4333 159.867C38.7666 199.7 21.8 246.4 14.4 296.234L14.1333 298.334ZM346.833 34.5004L347.633 20.1338C342.033 17.1671 335.533 14.6005 328.7 12.8005L328.033 12.6338L327.233 26.7671C333.9 29.1005 340.367 31.7338 346.833 34.5004Z" fill="white"/>
<path d="M327.533 79.9333L326.733 93.4333C333.967 93.7 340.833 94.6667 347.467 96.2333L346.733 96.1L347.533 82.7667C341.767 81.4333 334.933 80.4333 327.933 79.9667L327.533 79.9333ZM252.8 13.0667H254.833L250.667 0C243.833 0 237.1 0.466679 230.5 1.36668L231.267 1.26667L235.1 13.9C240.067 13.3667 245.833 13.0333 251.7 13.0333H252.867L252.8 13.0667ZM262.5 91.9333L267.133 106.733C272 104.1 277.833 101.567 283.833 99.5L284.7 99.2333L280.233 85.1C273.167 87.3 267.267 89.6333 261.6 92.3333L262.467 91.9667L262.5 91.9333ZM170.667 35.5667L161.567 20.7667C156.533 23.4333 151.267 26.5667 145.8 30L155.1 45C160.433 41.5667 165.5 38.3333 170.667 35.5667ZM212.067 132.033L221.767 147.467C225.533 141.767 229.467 136.8 233.767 132.167L233.7 132.233L224.6 117.633C220.1 122 216 126.7 212.3 131.7L212.067 132V132.033ZM182.733 201.033L199.1 214.733C200.033 205.267 201.533 196.733 203.6 188.433L203.333 189.667L188.767 177.467C186.667 183.667 184.567 191.6 182.933 199.667L182.733 201.033ZM94.3667 99.2333L80 85.9667C74.6667 91.3 69.7 96.6333 65.0333 101.967L80.5667 116.1C85.2 109.767 89.7 104.267 94.4667 98.9667L94.3 99.1667L94.3667 99.2333ZM33.3333 195.033L10.1 185.967C6.26667 195.2 2.1 205.9 0 211.7L23.2333 220.7C25.8667 213.433 30.1 202.933 33.3333 195.033ZM179.833 255.5C180.133 265.333 181 274.667 182.433 283.8L182.267 282.5L206.5 291.733C204.7 283.4 202.867 273.933 201.633 263.867L179.833 255.533V255.5Z" fill="white"/>
</svg>
