<svg width="123" height="102" viewBox="0 0 123 102" fill="none" xmlns="http://www.w3.org/2000/svg">
<g clip-path="url(#clip0_1522_2577)">
<path fill-rule="evenodd" clip-rule="evenodd" d="M3.34001 0H119.54C120.425 0.00263791 121.273 0.355377 121.899 0.981177C122.525 1.60698 122.877 2.45499 122.88 3.34V80.34C122.877 81.225 122.525 82.073 121.899 82.6988C121.273 83.3246 120.425 83.6774 119.54 83.68H3.34001C2.90009 83.6787 2.46472 83.5907 2.05878 83.4212C1.65285 83.2516 1.28428 83.0037 0.974132 82.6917C0.663984 82.3797 0.418327 82.0097 0.251188 81.6028C0.0840484 81.1958 -0.00130021 80.7599 1.49712e-05 80.32V3.32C0.00790583 2.43846 0.362962 1.59557 0.988197 0.974075C1.61343 0.352584 2.45845 0.00259624 3.34001 0ZM13.49 63.91C13.137 63.932 12.7833 63.8814 12.4506 63.7614C12.1179 63.6415 11.8133 63.4546 11.5555 63.2124C11.2978 62.9702 11.0924 62.6778 10.952 62.3532C10.8116 62.0286 10.7392 61.6787 10.7392 61.325C10.7392 60.9713 10.8116 60.6214 10.952 60.2968C11.0924 59.9722 11.2978 59.6798 11.5555 59.4376C11.8133 59.1954 12.1179 59.0085 12.4506 58.8886C12.7833 58.7686 13.137 58.718 13.49 58.74H52.94C53.293 58.718 53.6468 58.7686 53.9795 58.8886C54.3122 59.0085 54.6168 59.1954 54.8745 59.4376C55.1322 59.6798 55.3376 59.9722 55.478 60.2968C55.6184 60.6214 55.6909 60.9713 55.6909 61.325C55.6909 61.6787 55.6184 62.0286 55.478 62.3532C55.3376 62.6778 55.1322 62.9702 54.8745 63.2124C54.6168 63.4546 54.3122 63.6415 53.9795 63.7614C53.6468 63.8814 53.293 63.932 52.94 63.91H13.49ZM13.64 50.63C12.9822 50.5891 12.3648 50.2989 11.9135 49.8186C11.4621 49.3383 11.2109 48.7041 11.2109 48.045C11.2109 47.3859 11.4621 46.7517 11.9135 46.2714C12.3648 45.7911 12.9822 45.5009 13.64 45.46H42.4C43.0578 45.5009 43.6753 45.7911 44.1266 46.2714C44.5779 46.7517 44.8292 47.3859 44.8292 48.045C44.8292 48.7041 44.5779 49.3383 44.1266 49.8186C43.6753 50.2989 43.0578 50.5891 42.4 50.63H13.64ZM13.49 37.4C13.137 37.422 12.7833 37.3714 12.4506 37.2514C12.1179 37.1315 11.8133 36.9446 11.5555 36.7024C11.2978 36.4602 11.0924 36.1678 10.952 35.8432C10.8116 35.5186 10.7392 35.1687 10.7392 34.815C10.7392 34.4613 10.8116 34.1114 10.952 33.7868C11.0924 33.4622 11.2978 33.1698 11.5555 32.9276C11.8133 32.6854 12.1179 32.4985 12.4506 32.3786C12.7833 32.2586 13.137 32.208 13.49 32.23H33.85C34.5078 32.2709 35.1253 32.5611 35.5766 33.0414C36.0279 33.5217 36.2792 34.1559 36.2792 34.815C36.2792 35.4741 36.0279 36.1083 35.5766 36.5886C35.1253 37.0689 34.5078 37.3591 33.85 37.4H13.49ZM13.49 24.14C13.137 24.162 12.7833 24.1114 12.4506 23.9914C12.1179 23.8715 11.8133 23.6846 11.5555 23.4424C11.2978 23.2002 11.0924 22.9078 10.952 22.5832C10.8116 22.2586 10.7392 21.9087 10.7392 21.555C10.7392 21.2013 10.8116 20.8514 10.952 20.5268C11.0924 20.2022 11.2978 19.9098 11.5555 19.6676C11.8133 19.4254 12.1179 19.2385 12.4506 19.1186C12.7833 18.9986 13.137 18.948 13.49 18.97H25.3C25.9578 19.0109 26.5753 19.3011 27.0266 19.7814C27.4779 20.2617 27.7292 20.8959 27.7292 21.555C27.7292 22.2141 27.4779 22.8483 27.0266 23.3286C26.5753 23.8089 25.9578 24.0991 25.3 24.14H13.49ZM110.49 50.33V56.77L97.26 64.27V56.77L105.78 53.53L97.26 50.33V42.83L110.49 50.33ZM87.57 66.33H82L89 39.22H94.63L87.63 66.33H87.57ZM78.16 50.33L69.63 53.53L78.16 56.77V64.27L65 56.77V50.33L78.24 42.83V50.33H78.16ZM83.83 11.65V15.32C83.83 15.8053 83.6372 16.2708 83.294 16.614C82.9508 16.9572 82.4854 17.15 82 17.15H79C78.6253 18.3829 78.0872 19.56 77.4 20.65L79.4 22.65C79.7408 22.9929 79.932 23.4566 79.932 23.94C79.932 24.4234 79.7408 24.8871 79.4 25.23L76.69 27.94C76.3472 28.2807 75.8834 28.472 75.4 28.472C74.9166 28.472 74.4529 28.2807 74.11 27.94L71.93 25.76C70.7956 26.3686 69.5849 26.8226 68.33 27.11V29.93C68.3274 30.4145 68.1337 30.8785 67.7911 31.2211C67.4485 31.5637 66.9846 31.7574 66.5 31.76H62.63C62.1455 31.7574 61.6815 31.5637 61.3389 31.2211C60.9963 30.8785 60.8026 30.4145 60.8 29.93V26.85C59.5667 26.4811 58.3892 25.9462 57.3 25.26L55.3 27.26C55.1307 27.4314 54.9291 27.5675 54.7068 27.6604C54.4845 27.7533 54.2459 27.8012 54.005 27.8012C53.7641 27.8012 53.5256 27.7533 53.3032 27.6604C53.0809 27.5675 52.8793 27.4314 52.71 27.26L50 24.55C49.6706 24.2073 49.4867 23.7504 49.4867 23.275C49.4867 22.7996 49.6706 22.3427 50 22L52.18 19.83C51.5714 18.6921 51.1174 17.478 50.83 16.22H48C47.5147 16.22 47.0492 16.0272 46.706 15.684C46.3628 15.3408 46.17 14.8753 46.17 14.39V11.69H3.09001V70.84C3.09001 71.6356 3.40609 72.3987 3.96869 72.9613C4.5313 73.5239 5.29437 73.84 6.09001 73.84H116.85C117.646 73.84 118.409 73.5239 118.971 72.9613C119.534 72.3987 119.85 71.6356 119.85 70.84V11.65H83.83ZM72.41 11.65H57.62C57.5478 12.0729 57.511 12.501 57.51 12.93C57.6485 14.8245 58.4987 16.5964 59.89 17.8897C61.2813 19.183 63.1105 19.9019 65.01 19.9019C66.9096 19.9019 68.7387 19.183 70.13 17.8897C71.5213 16.5964 72.3716 14.8245 72.51 12.93C72.5123 12.5013 72.4789 12.0731 72.41 11.65ZM114.2 4.92C114.596 4.92 114.982 5.0373 115.311 5.25706C115.64 5.47682 115.896 5.78918 116.048 6.15463C116.199 6.52009 116.239 6.92222 116.162 7.31018C116.084 7.69814 115.894 8.05451 115.614 8.33421C115.335 8.61392 114.978 8.8044 114.59 8.88157C114.202 8.95874 113.8 8.91913 113.435 8.76776C113.069 8.61638 112.757 8.36004 112.537 8.03114C112.317 7.70224 112.2 7.31556 112.2 6.92C112.2 6.38957 112.411 5.88086 112.786 5.50579C113.161 5.13071 113.67 4.92 114.2 4.92ZM100.76 4.92C101.156 4.92 101.542 5.0373 101.871 5.25706C102.2 5.47682 102.456 5.78918 102.608 6.15463C102.759 6.52009 102.799 6.92222 102.722 7.31018C102.644 7.69814 102.454 8.05451 102.174 8.33421C101.895 8.61392 101.538 8.8044 101.15 8.88157C100.762 8.95874 100.36 8.91913 99.9947 8.76776C99.6292 8.61638 99.3168 8.36004 99.0971 8.03114C98.8773 7.70224 98.76 7.31556 98.76 6.92C98.76 6.38957 98.9707 5.88086 99.3458 5.50579C99.7209 5.13071 100.23 4.92 100.76 4.92ZM107.48 4.92C107.876 4.92 108.262 5.0373 108.591 5.25706C108.92 5.47682 109.176 5.78918 109.328 6.15463C109.479 6.52009 109.519 6.92222 109.442 7.31018C109.364 7.69814 109.174 8.05451 108.894 8.33421C108.615 8.61392 108.258 8.8044 107.87 8.88157C107.482 8.95874 107.08 8.91913 106.715 8.76776C106.349 8.61638 106.037 8.36004 105.817 8.03114C105.597 7.70224 105.48 7.31556 105.48 6.92C105.48 6.38957 105.691 5.88086 106.066 5.50579C106.441 5.13071 106.95 4.92 107.48 4.92ZM46.29 88.27H76.59C76.67 93.51 78.83 98.21 84.68 101.9H38.2C42.91 98.49 46.31 94.36 46.29 88.27Z" fill="#FB6B15"/>
</g>
<defs>
<clipPath id="clip0_1522_2577">
<rect width="122.88" height="101.9" fill="white"/>
</clipPath>
</defs>
</svg>
