<svg width="128" height="124" viewBox="0 0 128 124" fill="none" xmlns="http://www.w3.org/2000/svg">
<g clip-path="url(#clip0_1525_2596)">
<path d="M25.935 89.3195V101.145H40.76V89.3195H25.935ZM12.9975 22.1028V110.935H125.512V124H6.505C2.915 124 0 121.072 0 117.464V22.1028H12.9975ZM117.455 18.537L118.533 27.0255C118.865 29.6414 121.24 31.4883 123.845 31.1642C126.448 30.8325 128.285 28.4428 127.963 25.8269L125.215 4.32424C125.07 2.81401 124.208 1.39424 122.798 0.602684C121.51 -0.115996 120.047 -0.168767 118.772 0.321243L98.17 8.29709C95.7225 9.24695 94.5075 12.0111 95.4525 14.4712C96.395 16.9313 99.145 18.1526 101.592 17.2027L108.628 14.4813C100.918 24.9926 91.685 33.7725 81.7175 40.6126C67.36 50.4655 51.5275 56.2527 36.58 57.3382C33.955 57.5242 31.985 59.8084 32.17 62.4469C32.3575 65.0854 34.63 67.0655 37.255 66.8771C53.8425 65.7011 71.3325 59.3385 87.08 48.5256C98.4075 40.7583 108.855 30.6641 117.455 18.537ZM105.408 55.2651V101.145H120.232V55.2651H105.408ZM78.92 68.3094V101.145H93.735V68.3094H78.92ZM52.4325 76.8733V101.145H67.2475V76.8733H52.4325Z" fill="#1DB4FF"/>
</g>
<defs>
<clipPath id="clip0_1525_2596">
<rect width="128" height="124" fill="white"/>
</clipPath>
</defs>
</svg>
