<svg width="294" height="512" viewBox="0 0 294 512" fill="none" xmlns="http://www.w3.org/2000/svg">
<g clip-path="url(#clip0_1523_2579)">
<path fill-rule="evenodd" clip-rule="evenodd" d="M55.22 0H238.79C269.28 0 294 24.76 294 55.23V455.92C294 486.41 269.28 511.14 238.79 511.14H55.22C24.73 511.14 0 486.41 0 455.92V55.16C0 24.6 24.68 0 55.22 0ZM54.87 272.26C51.03 272.26 47.91 269.14 47.91 265.3C47.91 261.46 51.03 258.35 54.87 258.35H239.13C242.97 258.35 246.09 261.46 246.09 265.3C246.09 269.14 242.97 272.26 239.13 272.26H54.87ZM54.87 310.32C51.03 310.32 47.91 307.2 47.91 303.36C47.91 299.52 51.03 296.4 54.87 296.4H206.42C210.26 296.4 213.38 299.52 213.38 303.36C213.38 307.2 210.26 310.32 206.42 310.32H54.87ZM54.87 386.42C51.03 386.42 47.91 383.31 47.91 379.47C47.91 375.63 51.03 372.51 54.87 372.51H103.28C107.12 372.51 110.24 375.63 110.24 379.47C110.24 383.31 107.12 386.42 103.28 386.42H54.87ZM54.87 348.37C51.03 348.37 47.91 345.25 47.91 341.41C47.91 337.57 51.03 334.46 54.87 334.46H131.87C135.71 334.46 138.83 337.57 138.83 341.41C138.83 345.25 135.71 348.37 131.87 348.37H54.87ZM177.59 385.97C178.17 386.478 178.645 387.096 178.987 387.787C179.329 388.479 179.531 389.231 179.582 390.001C179.633 390.771 179.532 391.543 179.285 392.274C179.037 393.005 178.648 393.68 178.14 394.26C177.632 394.84 177.014 395.315 176.323 395.657C175.631 395.999 174.879 396.201 174.109 396.252C173.339 396.303 172.567 396.202 171.836 395.955C171.105 395.707 170.43 395.318 169.85 394.81L151.32 378.58C150.739 378.072 150.265 377.454 149.923 376.763C149.581 376.071 149.379 375.319 149.328 374.549C149.277 373.779 149.378 373.007 149.625 372.276C149.873 371.545 150.262 370.87 150.77 370.29L151.36 369.7L169.85 353.5C170.431 352.992 171.106 352.604 171.838 352.357C172.569 352.111 173.341 352.011 174.111 352.063C174.881 352.115 175.633 352.318 176.324 352.66C177.016 353.003 177.633 353.479 178.14 354.06C179.164 355.233 179.682 356.765 179.579 358.319C179.475 359.873 178.76 361.322 177.59 362.35L164.1 374.16L177.59 385.97ZM222.05 394.81C221.47 395.318 220.795 395.708 220.064 395.955C219.333 396.203 218.561 396.304 217.791 396.253C217.021 396.202 216.269 395.999 215.577 395.657C214.886 395.316 214.268 394.841 213.76 394.26C213.252 393.68 212.863 393.005 212.615 392.274C212.368 391.543 212.267 390.771 212.318 390.001C212.369 389.231 212.571 388.479 212.913 387.787C213.255 387.096 213.729 386.478 214.31 385.97L227.79 374.16L214.31 362.35C213.729 361.842 213.255 361.224 212.913 360.533C212.571 359.841 212.369 359.089 212.318 358.319C212.267 357.549 212.368 356.777 212.615 356.046C212.863 355.315 213.252 354.64 213.76 354.06C215.89 351.61 219.61 351.37 222.05 353.5L240.53 369.7L241.13 370.29C241.638 370.871 242.026 371.546 242.273 372.277C242.519 373.009 242.619 373.781 242.567 374.551C242.515 375.321 242.312 376.073 241.97 376.764C241.627 377.456 241.151 378.073 240.57 378.58L222.05 394.81ZM194.88 350.15C195.61 346.99 198.78 345.02 201.95 345.75C205.11 346.49 207.09 349.66 206.35 352.82L195.76 398.17C195.402 399.689 194.458 401.004 193.133 401.829C191.808 402.653 190.211 402.92 188.69 402.57C185.52 401.83 183.55 398.66 184.29 395.5L194.88 350.15ZM227.4 159.45C226.59 158.89 225.74 158.69 224.81 158.85C223.88 159.02 223.13 159.5 222.57 160.3L219.54 164.6C218.44 164.13 217.3 163.76 216.12 163.45C214.95 163.14 213.76 162.91 212.57 162.73L211.58 157.1C211.42 156.15 210.96 155.41 210.18 154.86C209.4 154.31 208.55 154.13 207.6 154.3L200.52 155.53C199.62 155.69 198.89 156.15 198.32 156.93C197.76 157.71 197.57 158.57 197.73 159.52L198.63 164.67C197.5 165.16 196.41 165.71 195.38 166.33C194.34 166.95 193.38 167.62 192.47 168.34L187.71 165.04C186.95 164.48 186.11 164.27 185.17 164.43C184.24 164.59 183.51 165.08 182.94 165.87L178.85 171.7C178.29 172.5 178.09 173.36 178.25 174.29C178.42 175.21 178.9 175.97 179.7 176.52L184 179.56C183.53 180.66 183.16 181.79 182.85 182.97C182.54 184.15 182.31 185.34 182.13 186.53L176.5 187.51C175.55 187.67 174.8 188.14 174.26 188.92C173.71 189.69 173.53 190.55 173.69 191.5L174.93 198.57C175.09 199.48 175.55 200.21 176.33 200.78C177.11 201.33 177.96 201.53 178.91 201.36L184.07 200.46C184.56 201.6 185.11 202.68 185.73 203.71C186.35 204.75 187.03 205.74 187.75 206.69L184.44 211.39C183.88 212.15 183.67 212.98 183.83 213.92C183.99 214.85 184.48 215.59 185.27 216.16L191.11 220.31C191.9 220.83 192.76 221 193.68 220.84C194.61 220.68 195.37 220.22 195.93 219.47L198.96 215.1C200.05 215.56 201.19 215.94 202.37 216.24C203.55 216.55 204.73 216.79 205.92 216.96L206.91 222.6C207.07 223.55 207.54 224.29 208.31 224.84C209.09 225.38 209.95 225.57 210.9 225.4L217.97 224.17C218.88 224.01 219.61 223.55 220.17 222.77C220.73 221.99 220.93 221.13 220.76 220.18L219.86 215.02C220.981 214.549 222.068 213.997 223.11 213.37C224.15 212.74 225.14 212.07 226.09 211.34L230.79 214.66C231.55 215.22 232.39 215.43 233.34 215.26C234.31 215.09 235.03 214.61 235.55 213.83L239.71 207.99C240.23 207.19 240.4 206.34 240.24 205.41C240.08 204.48 239.62 203.73 238.87 203.16L234.49 200.14C234.96 199.04 235.33 197.9 235.64 196.72C235.95 195.55 236.19 194.36 236.36 193.17L242 192.19C242.95 192.02 243.69 191.56 244.24 190.78C244.78 190.01 244.97 189.15 244.8 188.2L243.57 181.13C243.41 180.22 242.95 179.49 242.17 178.92C241.39 178.36 240.53 178.17 239.58 178.33L234.42 179.23C233.936 178.127 233.385 177.055 232.77 176.02C232.14 174.96 231.47 173.98 230.75 173.08L234.06 168.31C234.62 167.55 234.83 166.71 234.66 165.77C234.5 164.85 234.01 164.11 233.22 163.54L227.4 159.45ZM207.18 178.01C208.81 177.73 210.4 177.77 211.96 178.13C213.51 178.5 214.92 179.12 216.17 180C217.42 180.88 218.48 181.99 219.36 183.33C220.22 184.68 220.8 186.16 221.08 187.79C221.37 189.41 221.33 191 220.97 192.56C220.6 194.11 219.97 195.52 219.1 196.77C218.196 198.033 217.063 199.115 215.76 199.96C214.42 200.83 212.94 201.4 211.31 201.68C209.69 201.97 208.1 201.93 206.53 201.57C204.98 201.2 203.58 200.58 202.32 199.7C201.07 198.82 200.01 197.71 199.14 196.37C198.27 195.02 197.69 193.54 197.41 191.91C197.13 190.29 197.17 188.7 197.53 187.14C197.9 185.58 198.52 184.18 199.4 182.92C200.28 181.68 201.39 180.62 202.73 179.74C204.08 178.87 205.56 178.3 207.18 178.01ZM152.93 91.72C152.58 91.37 152.24 91.12 151.91 90.99C151.6 90.86 151.22 90.79 150.78 90.79C150.34 90.79 149.95 90.86 149.63 90.99C149.3 91.13 148.96 91.37 148.64 91.69L141.84 98.47C141.299 99.0054 140.587 99.3337 139.828 99.3977C139.07 99.4617 138.313 99.2572 137.69 98.82C136.92 98.33 136.09 97.85 135.22 97.37C134.28 96.87 133.36 96.41 132.46 96C131.52 95.56 130.55 95.16 129.6 94.79C128.73 94.45 127.73 94.1 126.66 93.74C126.009 93.5266 125.441 93.1129 125.039 92.558C124.637 92.0031 124.42 91.3354 124.42 90.65V80.27C124.42 79.81 124.35 79.41 124.21 79.06C124.058 78.7067 123.837 78.3871 123.56 78.12C123.292 77.8415 122.973 77.6174 122.62 77.46C122.27 77.33 121.87 77.26 121.41 77.26H108.37C107.95 77.26 107.58 77.32 107.27 77.45C106.92 77.6 106.57 77.83 106.24 78.16C105.94 78.45 105.72 78.76 105.59 79.09C105.45 79.42 105.38 79.82 105.38 80.27V89.78C105.38 91.38 104.22 92.71 102.7 92.98C101.66 93.23 100.71 93.48 99.86 93.74C98.9 94.04 97.93 94.38 96.98 94.75L96.82 94.81C95.95 95.14 95.07 95.52 94.17 95.94L94.01 96C93.14 96.41 92.31 96.83 91.51 97.26C90.23 97.96 88.68 97.7 87.69 96.73L80.11 89.26C79.82 88.95 79.51 88.72 79.2 88.59C78.9 88.46 78.54 88.39 78.12 88.39C77.7 88.39 77.32 88.47 77 88.6C76.64 88.75 76.29 89 75.95 89.33L66.85 98.46C66.51 98.8 66.26 99.14 66.12 99.48C65.99 99.8 65.92 100.18 65.92 100.62C65.92 101.06 65.99 101.45 66.12 101.77C66.27 102.1 66.5 102.43 66.82 102.75L73.6 109.55C74.73 110.69 74.85 112.45 73.95 113.71C73.46 114.47 72.98 115.3 72.51 116.18C72 117.12 71.54 118.04 71.13 118.94C70.2627 120.826 69.5113 122.763 68.88 124.74C68.6661 125.39 68.252 125.956 67.6969 126.357C67.1419 126.757 66.4745 126.972 65.79 126.97L55.4 126.98C54.94 126.98 54.54 127.05 54.2 127.19C53.86 127.32 53.54 127.54 53.25 127.83C52.95 128.13 52.74 128.44 52.6 128.78C52.46 129.13 52.39 129.53 52.39 129.99V143.03C52.39 143.45 52.45 143.82 52.58 144.13C52.73 144.48 52.97 144.82 53.29 145.16C53.59 145.45 53.9 145.67 54.22 145.81C54.55 145.94 54.95 146.01 55.4 146.01H64.91C66.51 146.01 67.85 147.17 68.12 148.7C68.36 149.73 68.62 150.68 68.88 151.54C69.18 152.5 69.51 153.46 69.88 154.41L69.96 154.64C70.28 155.45 70.66 156.34 71.08 157.29C71.54 158.3 71.99 159.23 72.42 160.06C73.09 161.35 72.81 162.88 71.84 163.86L64.39 171.28C64.08 171.58 63.85 171.88 63.72 172.19C63.59 172.5 63.53 172.86 63.53 173.27C63.53 173.7 63.6 174.07 63.74 174.39C63.89 174.75 64.14 175.11 64.47 175.44L73.53 184.61C73.85 184.91 74.2 185.14 74.54 185.27C74.89 185.4 75.29 185.48 75.75 185.48C76.21 185.48 76.63 185.4 76.98 185.27L77.08 185.23C77.38 185.1 77.67 184.9 77.94 184.64L84.66 177.82C85.76 176.7 87.46 176.55 88.72 177.36C89.57 177.9 90.44 178.42 91.31 178.89C92.25 179.4 93.17 179.85 94.07 180.27C95.9617 181.123 97.8978 181.874 99.87 182.52C101.24 182.97 102.11 184.24 102.11 185.61V195.99C102.11 196.45 102.18 196.86 102.32 197.2L102.37 197.32C102.5 197.6 102.7 197.87 102.97 198.14C103.28 198.44 103.6 198.67 103.92 198.8C104.26 198.94 104.66 199.01 105.12 199.01H118.16C118.58 199.01 118.95 198.94 119.26 198.82C119.61 198.67 119.96 198.43 120.29 198.11C120.59 197.81 120.81 197.5 120.94 197.17C121.08 196.84 121.15 196.45 121.15 195.99V186.48C121.15 184.88 122.31 183.55 123.83 183.28C124.88 183.03 125.84 182.77 126.71 182.51C127.69 182.2 128.65 181.87 129.56 181.52C130.47 181.16 131.43 180.76 132.42 180.31C133.44 179.85 134.37 179.4 135.19 178.98C136.48 178.3 138.02 178.58 138.99 179.56L146.42 187C146.7 187.3 147 187.52 147.33 187.66L147.49 187.74C147.76 187.83 148.08 187.87 148.45 187.87C148.91 187.87 149.3 187.8 149.59 187.67C149.92 187.52 150.22 187.3 150.5 187L159.75 177.87C160.05 177.54 160.27 177.2 160.4 176.86C160.54 176.51 160.61 176.1 160.61 175.65C160.61 175.18 160.54 174.77 160.4 174.42L160.36 174.31C160.23 174.02 160.03 173.72 159.77 173.45L152.95 166.74C152.419 166.216 152.085 165.526 152.003 164.785C151.921 164.044 152.097 163.297 152.5 162.67C153.04 161.83 153.55 160.96 154.02 160.08C154.53 159.14 154.99 158.22 155.4 157.33C155.83 156.38 156.23 155.42 156.61 154.46C156.95 153.59 157.3 152.6 157.66 151.52C157.873 150.871 158.286 150.307 158.839 149.906C159.392 149.506 160.057 149.29 160.74 149.29H171.13C171.59 149.29 171.99 149.21 172.33 149.08L172.46 149.03C172.75 148.89 173.02 148.69 173.28 148.43C173.58 148.13 173.8 147.81 173.94 147.48C174.07 147.14 174.14 146.73 174.14 146.27V133.24C174.14 132.82 174.08 132.45 173.95 132.13C173.8 131.78 173.56 131.44 173.24 131.1C172.94 130.81 172.63 130.59 172.31 130.46C171.98 130.32 171.58 130.25 171.13 130.25H161.62C159.99 130.25 158.64 129.05 158.4 127.49C158.18 126.61 157.92 125.69 157.63 124.76C157.35 123.84 157.02 122.88 156.64 121.89L156.58 121.72C156.22 120.78 155.85 119.88 155.46 119.03C155.03 118.1 154.59 117.21 154.13 116.38C153.44 115.1 153.7 113.55 154.67 112.56L162.14 104.98C162.45 104.69 162.68 104.38 162.81 104.07C162.94 103.77 163 103.41 163 102.99C163 102.57 162.93 102.19 162.8 101.87C162.64 101.51 162.4 101.15 162.07 100.82L152.93 91.72ZM154.43 85.02C155.58 85.5 156.62 86.21 157.53 87.12L166.69 96.27C167.59 97.19 168.29 98.21 168.77 99.33C169.26 100.48 169.51 101.7 169.51 102.99C169.51 104.3 169.25 105.53 168.75 106.67C168.26 107.79 167.54 108.78 166.63 109.66L160.93 115.44L161.35 116.34C161.81 117.34 162.24 118.37 162.64 119.41L162.71 119.57C163.1 120.61 163.48 121.71 163.83 122.85L164.1 123.74H171.13C172.43 123.74 173.65 123.98 174.8 124.46C175.941 124.945 176.974 125.652 177.84 126.54L177.91 126.61C178.8 127.53 179.48 128.54 179.94 129.65C180.41 130.8 180.65 132 180.65 133.24V146.27C180.65 147.57 180.41 148.78 179.95 149.92C179.467 151.075 178.764 152.124 177.88 153.01C177.02 153.86 176.08 154.51 175.05 154.98L174.77 155.1C173.64 155.56 172.42 155.79 171.13 155.79H163.04L162.65 156.8C162.23 157.88 161.78 158.96 161.3 160.02C160.814 161.083 160.294 162.13 159.74 163.16L159.33 163.91L164.46 168.96C165.27 169.82 165.9 170.78 166.34 171.82L166.45 172.06C166.89 173.19 167.12 174.39 167.12 175.65C167.12 176.9 166.89 178.09 166.45 179.22C165.994 180.359 165.329 181.404 164.49 182.3L155.19 191.49C154.3 192.43 153.28 193.15 152.16 193.63C150.99 194.12 149.76 194.38 148.45 194.38C147.27 194.38 146.15 194.17 145.09 193.75L144.76 193.63C143.611 193.127 142.577 192.396 141.72 191.48L136.04 185.79L135.09 186.23C134.1 186.68 133.03 187.13 131.9 187.56C130.8 187.99 129.7 188.37 128.61 188.71L127.65 188.98V195.99C127.662 197.24 127.421 198.48 126.942 199.635C126.462 200.79 125.754 201.836 124.86 202.71L124.79 202.78C123.87 203.67 122.85 204.35 121.75 204.8C120.59 205.27 119.4 205.51 118.16 205.51H105.12C103.83 205.51 102.61 205.28 101.48 204.82C100.314 204.344 99.2558 203.636 98.37 202.74C97.5542 201.922 96.8935 200.963 96.42 199.91L96.3 199.64C95.84 198.5 95.6 197.29 95.6 195.99V187.9L94.6 187.52C93.51 187.1 92.44 186.64 91.38 186.16C90.27 185.65 89.21 185.13 88.24 184.61L87.49 184.19L82.43 189.32C81.58 190.13 80.62 190.77 79.58 191.21L79.34 191.31C78.1968 191.76 76.9784 191.987 75.75 191.98C74.5 191.98 73.31 191.76 72.18 191.31C71.0336 190.861 69.9845 190.196 69.09 189.35L59.84 179.99C58.94 179.07 58.24 178.05 57.76 176.93C57.2669 175.773 57.0151 174.528 57.02 173.27C57.02 171.96 57.28 170.73 57.78 169.59C58.2809 168.454 59.0092 167.433 59.92 166.59L65.61 160.91L65.16 159.96C64.77 159.07 64.35 158.08 63.93 156.98L63.84 156.77C63.42 155.7 63.03 154.58 62.68 153.44L62.41 152.52H55.4C54.1 152.52 52.88 152.28 51.73 151.8C50.6 151.33 49.59 150.63 48.68 149.72L48.62 149.66C47.72 148.73 47.05 147.72 46.59 146.61C46.12 145.46 45.89 144.27 45.89 143.03V129.99C45.89 128.69 46.12 127.47 46.58 126.34C47.0559 125.185 47.7599 124.137 48.65 123.26C49.59 122.32 50.62 121.63 51.76 121.16C52.89 120.7 54.11 120.47 55.4 120.47H63.49L63.88 119.46C64.2957 118.371 64.7493 117.297 65.24 116.24C65.74 115.13 66.26 114.08 66.79 113.1L67.22 112.33L62.27 107.37C61.3638 106.492 60.6429 105.441 60.15 104.28C59.6598 103.122 59.4081 101.877 59.41 100.62C59.41 99.35 59.66 98.13 60.15 96.97C60.6441 95.8142 61.3572 94.7649 62.25 93.88L71.4 84.71C72.32 83.81 73.34 83.11 74.46 82.63C75.62 82.14 76.84 81.89 78.12 81.89C79.43 81.89 80.66 82.14 81.81 82.65C82.92 83.14 83.92 83.85 84.79 84.77L90.57 90.46L91.45 90.04C92.39 89.61 93.41 89.18 94.48 88.76L94.62 88.7C95.69 88.28 96.81 87.9 97.96 87.55L98.88 87.28V80.27C98.868 79.0196 99.109 77.7798 99.5884 76.625C100.068 75.4701 100.776 74.4242 101.67 73.55L101.74 73.48C102.66 72.59 103.68 71.92 104.78 71.46C105.94 70.99 107.13 70.75 108.37 70.75H121.41C122.7 70.75 123.92 70.98 125.05 71.44C126.22 71.93 127.25 72.61 128.16 73.52C129.07 74.43 129.76 75.47 130.23 76.62C130.69 77.75 130.93 78.97 130.93 80.27V88.36L131.93 88.74C133.01 89.16 134.1 89.62 135.15 90.1C136.26 90.61 137.32 91.13 138.29 91.65L139.06 92.08L144.03 87.14C144.94 86.21 145.98 85.5 147.11 85.02C148.28 84.53 149.51 84.28 150.78 84.28C152.05 84.28 153.27 84.52 154.43 85.02ZM124.51 111.59C128.04 113.12 131.11 115.17 133.66 117.73L133.85 117.93C136.33 120.46 138.33 123.46 139.81 126.89L139.91 127.17C141.34 130.66 142.06 134.41 142.06 138.13C142.06 141.94 141.31 145.78 139.81 149.35V149.38C138.3 152.88 136.23 155.94 133.66 158.52C131.08 161.1 128.02 163.16 124.51 164.67L124.23 164.78C117.114 167.684 109.137 167.645 102.05 164.67H102.02C98.51 163.16 95.45 161.1 92.88 158.53C90.29 155.94 88.24 152.88 86.72 149.38L86.62 149.1C85.18 145.6 84.47 141.85 84.47 138.13C84.47 134.32 85.22 130.48 86.72 126.91V126.89C88.24 123.37 90.3 120.31 92.87 117.74C95.42 115.17 98.49 113.12 102.02 111.59L102.3 111.49C105.79 110.05 109.54 109.33 113.27 109.33C117.08 109.33 120.91 110.08 124.48 111.59H124.51ZM129.06 122.33C127.08 120.35 124.7 118.75 121.94 117.56C119.23 116.41 116.26 115.84 113.27 115.84C110.34 115.84 107.44 116.38 104.78 117.47L104.59 117.56C101.83 118.75 99.45 120.35 97.47 122.33C95.48 124.3 93.89 126.68 92.69 129.45C91.54 132.17 90.97 135.14 90.97 138.13C90.97 141.05 91.52 143.95 92.6 146.62L92.69 146.81C93.89 149.58 95.48 151.96 97.45 153.93C99.43 155.91 101.82 157.51 104.59 158.7C107.3 159.85 110.27 160.42 113.27 160.42C116.19 160.42 119.09 159.88 121.75 158.79L121.94 158.7C124.71 157.51 127.1 155.91 129.06 153.94C131.05 151.96 132.64 149.58 133.84 146.81C134.98 144.09 135.56 141.12 135.56 138.13C135.56 135.21 135.01 132.31 133.92 129.64L133.84 129.45C132.67 126.76 131.14 124.43 129.24 122.49L129.06 122.33ZM19.02 434.43H274.9V54.7H19.02V434.43ZM146.93 451.71C159.42 451.71 169.63 461.77 169.63 474.41C169.63 486.92 159.58 497.12 146.93 497.12C134.44 497.12 124.22 487.07 124.22 474.41C124.22 461.93 134.28 451.71 146.93 451.71Z" fill="#02D6E4"/>
</g>
<defs>
<clipPath id="clip0_1523_2579">
<rect width="294" height="511.14" fill="white"/>
</clipPath>
</defs>
</svg>
