<svg width="117" height="123" viewBox="0 0 117 123" fill="none" xmlns="http://www.w3.org/2000/svg">
<g clip-path="url(#clip0_1523_2581)">
<path fill-rule="evenodd" clip-rule="evenodd" d="M42.85 22.45L77.49 8L107.36 38.77L93.42 73.3C69.78 79.85 47.76 89.41 26.97 101.26L22.75 96.02L63.98 55.14C64.81 55.52 65.71 55.71 66.62 55.71H66.63C70.19 55.71 73.07 52.83 73.07 49.27C73.07 45.72 70.19 42.83 66.63 42.83C63.08 42.83 60.19 45.71 60.19 49.27C60.19 50.42 60.49 51.5 61.02 52.43L20.22 92.97L14.56 87.8C27.01 67.42 36.53 45.69 42.85 22.45ZM87.36 0L116.29 29.64L113.65 32.21L111.01 34.78L82.08 5.13L84.72 2.56L87.36 0ZM18.99 107.36C32.55 119.84 40.53 114.4 51.82 106.68C61.16 100.3 72.45 92.59 89.57 90.04C90.79 85.94 94.59 82.95 99.08 82.95C104.56 82.95 109 87.39 109 92.87C109 98.35 104.56 102.79 99.08 102.79C95.23 102.79 91.89 100.6 90.25 97.39C74.93 99.82 64.56 106.9 55.97 112.76C41.5 122.64 31.39 129.54 13.67 112.52C12.48 113 11.21 113.25 9.93 113.25H9.92C4.44 113.25 0 108.81 0 103.33C0 97.85 4.44 93.41 9.92 93.41C15.4 93.41 19.84 97.85 19.84 103.33V103.34C19.84 104.73 19.55 106.09 18.99 107.36Z" fill="#F800FF"/>
</g>
<defs>
<clipPath id="clip0_1523_2581">
<rect width="116.28" height="122.88" fill="white"/>
</clipPath>
</defs>
</svg>
