<svg width="120" height="123" viewBox="0 0 120 123" fill="none" xmlns="http://www.w3.org/2000/svg">
<g clip-path="url(#clip0_1523_2585)">
<path fill-rule="evenodd" clip-rule="evenodd" d="M6.89 40.02H13.8V38.42C13.8 36.28 14.23 34.24 15 32.38C15.81 30.45 16.98 28.7 18.45 27.24C19.91 25.78 21.66 24.6 23.59 23.79C25.45 23.01 27.49 22.58 29.63 22.58H57.11V22.44V15.17C56.66 15.01 56.24 14.8 55.83 14.57C55.26 14.23 54.73 13.82 54.27 13.36C53.55 12.64 52.97 11.78 52.57 10.82C52.19 9.9 51.98 8.88 51.98 7.83C51.98 6.77 52.19 5.76 52.57 4.84C52.97 3.88 53.55 3.01 54.27 2.29C54.99 1.57 55.85 0.99 56.81 0.59C57.73 0.2 58.75 0 59.8 0C60.85 0 61.87 0.21 62.79 0.59C63.75 0.99 64.62 1.57 65.34 2.29C66.06 3.01 66.64 3.87 67.04 4.84C67.42 5.76 67.63 6.78 67.63 7.83C67.63 8.89 67.42 9.9 67.04 10.82C66.64 11.78 66.06 12.65 65.34 13.36L65.3 13.4C64.84 13.85 64.33 14.25 63.77 14.58C63.36 14.82 62.93 15.03 62.49 15.18V22.45V22.59H89.97C92.11 22.59 94.15 23.02 96.01 23.8C97.95 24.61 99.69 25.78 101.15 27.25C102.61 28.71 103.79 30.46 104.6 32.39C105.38 34.26 105.8 36.29 105.8 38.43V40.03H112.46C113.38 40.03 114.28 40.21 115.09 40.55C115.94 40.9 116.69 41.41 117.32 42.05L117.36 42.09C117.98 42.72 118.48 43.46 118.82 44.29C119.16 45.11 119.34 45.99 119.34 46.92V65.3C119.34 66.22 119.16 67.12 118.82 67.93C118.47 68.77 117.96 69.53 117.32 70.16C116.08 71.4 114.35 72.18 112.45 72.18H105.78C105.75 74.23 105.32 76.2 104.57 78C103.76 79.94 102.59 81.68 101.12 83.14C99.66 84.6 97.91 85.78 95.98 86.59C94.11 87.37 92.08 87.79 89.94 87.79H79.36V114.33H96.04C96.13 114.19 96.22 114.04 96.32 113.9C96.52 113.61 96.74 113.35 96.98 113.1C97.5 112.58 98.13 112.15 98.84 111.86C99.52 111.58 100.26 111.43 101.03 111.43C101.79 111.43 102.55 111.58 103.22 111.86C103.93 112.15 104.55 112.58 105.08 113.1C105.6 113.62 106.03 114.25 106.32 114.96C106.6 115.64 106.75 116.38 106.75 117.15C106.75 117.92 106.59 118.65 106.32 119.34C106.03 120.05 105.6 120.68 105.08 121.2C104.56 121.72 103.93 122.15 103.22 122.44C102.54 122.72 101.8 122.87 101.03 122.87C100.28 122.87 99.56 122.73 98.88 122.45L98.84 122.44C98.13 122.15 97.51 121.72 96.98 121.2C96.66 120.88 96.37 120.5 96.13 120.11C96 119.89 95.87 119.65 95.78 119.41H76.81C76.1 119.41 75.47 119.12 75 118.66C74.52 118.19 74.24 117.55 74.24 116.84V87.79H61.83V112.02C62.02 112.12 62.21 112.22 62.39 112.34C62.73 112.55 63.05 112.82 63.33 113.09C63.86 113.62 64.28 114.24 64.57 114.95C64.85 115.63 65 116.37 65 117.14C65 117.89 64.86 118.61 64.58 119.29L64.57 119.33C64.28 120.04 63.85 120.66 63.33 121.19C62.81 121.71 62.18 122.14 61.47 122.43C60.79 122.71 60.05 122.86 59.28 122.86C58.51 122.86 57.77 122.7 57.09 122.43C56.38 122.14 55.75 121.71 55.23 121.19C54.71 120.67 54.28 120.04 53.99 119.33C53.72 118.65 53.56 117.91 53.56 117.14C53.56 116.39 53.7 115.67 53.98 114.99L53.99 114.95C54.28 114.24 54.71 113.62 55.23 113.09C55.5 112.81 55.81 112.57 56.14 112.36L56.18 112.33C56.36 112.23 56.55 112.13 56.74 112.03V87.79H40.18V101.16C40.18 101.87 39.89 102.5 39.43 102.96C38.96 103.43 38.33 103.71 37.62 103.71H25.88C25.79 103.89 25.69 104.05 25.58 104.23C25.38 104.53 25.15 104.82 24.88 105.08L24.83 105.12C24.31 105.64 23.68 106.07 22.97 106.36C22.29 106.64 21.55 106.79 20.78 106.79C20.03 106.79 19.31 106.64 18.63 106.37L18.59 106.36C17.88 106.07 17.26 105.64 16.73 105.12C16.21 104.6 15.78 103.97 15.49 103.26C15.21 102.58 15.06 101.84 15.06 101.07C15.06 100.31 15.22 99.56 15.49 98.87C15.78 98.16 16.21 97.53 16.73 97.01C17.27 96.5 17.92 96.07 18.63 95.78C19.31 95.5 20.05 95.35 20.82 95.35C21.6 95.35 22.34 95.51 23.01 95.78C23.69 96.07 24.31 96.48 24.82 97L24.86 97.03C25.15 97.32 25.42 97.65 25.64 98C25.75 98.19 25.87 98.39 25.97 98.61H35.08V87.79H29.64C27.5 87.79 25.46 87.36 23.6 86.59C21.66 85.78 19.92 84.61 18.46 83.14C16.99 81.68 15.81 79.93 15 78C14.25 76.2 13.83 74.23 13.8 72.18H6.89C5.97 72.18 5.07 72 4.26 71.66C3.41 71.31 2.66 70.8 2.03 70.16L1.99 70.12C1.37 69.49 0.87 68.75 0.53 67.92C0.18 67.11 0 66.21 0 65.29V46.91C0 45.99 0.18 45.09 0.53 44.28C0.88 43.44 1.39 42.68 2.03 42.05C2.66 41.42 3.42 40.9 4.26 40.55C5.07 40.21 5.96 40.02 6.89 40.02ZM45.66 69.59C45.52 69.48 45.41 69.37 45.3 69.23C44.98 68.84 44.81 68.39 44.8 67.94C44.79 67.48 44.94 67.03 45.24 66.63C45.35 66.49 45.46 66.37 45.61 66.25C46.12 65.83 46.79 65.61 47.45 65.6C48.11 65.59 48.77 65.78 49.3 66.18C51.11 67.57 52.89 68.58 54.66 69.25C56.41 69.91 58.14 70.22 59.85 70.2C61.57 70.18 63.31 69.82 65.09 69.15C66.89 68.47 68.69 67.45 70.53 66.14C71.07 65.75 71.74 65.58 72.4 65.61C73.06 65.64 73.72 65.87 74.22 66.31C74.35 66.43 74.46 66.55 74.57 66.7C74.86 67.11 75 67.57 74.97 68.03C74.94 68.49 74.76 68.93 74.43 69.31C74.31 69.44 74.18 69.56 74.02 69.67C71.72 71.33 69.41 72.59 67.06 73.46C64.71 74.32 62.33 74.78 59.92 74.81C57.5 74.84 55.11 74.43 52.73 73.57C50.37 72.72 48.02 71.4 45.71 69.63L45.66 69.59ZM39.61 39.88C40.19 39.88 40.78 39.94 41.33 40.05C41.89 40.17 42.45 40.33 42.98 40.55C43.52 40.77 44.04 41.05 44.51 41.37C44.98 41.68 45.41 42.03 45.8 42.42L45.86 42.47C46.27 42.88 46.64 43.32 46.96 43.81L46.98 43.84C47.29 44.31 47.56 44.81 47.78 45.35C48 45.88 48.17 46.44 48.28 47C48.39 47.56 48.46 48.14 48.46 48.72C48.46 49.3 48.4 49.89 48.28 50.44C48.17 51 48 51.55 47.78 52.1C47.56 52.64 47.28 53.16 46.96 53.63C45.99 55.09 44.6 56.22 42.98 56.88C42.45 57.1 41.89 57.27 41.32 57.39C40.76 57.5 40.18 57.55 39.6 57.55C39.02 57.55 38.43 57.49 37.88 57.39C37.32 57.27 36.76 57.11 36.22 56.88C35.68 56.66 35.16 56.38 34.68 56.06C34.18 55.73 33.74 55.36 33.34 54.96C32.93 54.55 32.56 54.11 32.24 53.62L32.22 53.59C31.91 53.12 31.64 52.62 31.42 52.08C31.2 51.55 31.03 50.99 30.91 50.43C30.8 49.87 30.75 49.29 30.75 48.71C30.75 48.13 30.81 47.54 30.91 46.99C31.03 46.43 31.19 45.87 31.42 45.34C31.64 44.8 31.92 44.28 32.24 43.81C32.57 43.31 32.94 42.87 33.34 42.47C33.75 42.06 34.19 41.69 34.68 41.37L34.71 41.35C35.18 41.04 35.68 40.77 36.22 40.55C36.75 40.33 37.31 40.16 37.87 40.05C38.44 39.94 39.02 39.88 39.61 39.88ZM80 39.88C80.58 39.88 81.17 39.94 81.72 40.05C82.28 40.17 82.84 40.33 83.37 40.55C83.91 40.77 84.43 41.05 84.9 41.37C85.36 41.68 85.78 42.02 86.17 42.41C86.19 42.43 86.22 42.45 86.24 42.47C86.65 42.88 87.02 43.32 87.34 43.81L87.36 43.84C87.67 44.31 87.94 44.81 88.16 45.35C88.38 45.88 88.55 46.44 88.67 47C88.78 47.56 88.83 48.14 88.83 48.72C88.83 49.3 88.77 49.89 88.67 50.44C88.55 51 88.39 51.56 88.16 52.1C87.94 52.64 87.66 53.16 87.34 53.63C87.01 54.13 86.64 54.57 86.24 54.97C85.83 55.38 85.39 55.75 84.9 56.07L84.87 56.09C84.39 56.4 83.9 56.67 83.36 56.89C82.83 57.11 82.27 57.28 81.7 57.4C81.14 57.51 80.56 57.56 79.98 57.56C79.4 57.56 78.81 57.5 78.26 57.4C77.7 57.28 77.14 57.12 76.6 56.89C76.05 56.66 75.53 56.38 75.07 56.07L75.02 56.03C74.55 55.71 74.12 55.36 73.73 54.97C73.32 54.56 72.95 54.12 72.63 53.63L72.61 53.6C72.3 53.13 72.03 52.63 71.81 52.09C71.59 51.56 71.42 51 71.3 50.44C71.19 49.88 71.13 49.3 71.13 48.72C71.13 48.14 71.19 47.55 71.3 47C71.42 46.44 71.58 45.88 71.81 45.35C72.03 44.81 72.31 44.29 72.63 43.82C72.96 43.32 73.33 42.88 73.73 42.48C74.13 42.08 74.58 41.71 75.07 41.38C75.55 41.06 76.06 40.79 76.6 40.55C77.13 40.33 77.69 40.16 78.25 40.05C78.84 39.94 79.42 39.88 80 39.88ZM17.67 41.97V71.96C17.67 73.57 17.99 75.11 18.57 76.52C19.18 77.98 20.07 79.3 21.17 80.41C22.28 81.52 23.6 82.41 25.06 83.01C26.46 83.59 28 83.91 29.62 83.91H89.98C91.59 83.91 93.13 83.59 94.54 83.01C96 82.4 97.32 81.51 98.43 80.41C99.54 79.3 100.43 77.98 101.03 76.52C101.61 75.12 101.93 73.58 101.93 71.96V38.42C101.93 36.81 101.61 35.26 101.03 33.86C100.42 32.4 99.53 31.08 98.43 29.97C97.32 28.86 96 27.97 94.54 27.37C93.14 26.79 91.6 26.47 89.98 26.47H29.63C28.02 26.47 26.48 26.79 25.07 27.37C23.61 27.98 22.29 28.87 21.18 29.97C20.07 31.08 19.18 32.4 18.58 33.86C18 35.26 17.68 36.8 17.68 38.42L17.67 41.97ZM13.79 43.9H6.89C6.48 43.9 6.09 43.98 5.74 44.12C5.37 44.28 5.04 44.5 4.76 44.78L4.72 44.81C4.46 45.08 4.24 45.4 4.1 45.75C3.95 46.1 3.88 46.49 3.88 46.9V65.28C3.88 65.69 3.96 66.08 4.1 66.43C4.26 66.8 4.48 67.13 4.76 67.41C5.3 67.95 6.05 68.29 6.88 68.29H13.79V43.9ZM112.48 43.9H105.82V68.29H112.48C112.89 68.29 113.28 68.21 113.63 68.07C114 67.91 114.33 67.69 114.61 67.41C114.89 67.13 115.12 66.8 115.27 66.43C115.42 66.08 115.49 65.69 115.49 65.28V46.91C115.49 46.5 115.41 46.11 115.27 45.76C115.11 45.39 114.89 45.06 114.61 44.78C114.33 44.5 114 44.27 113.63 44.12C113.28 43.99 112.89 43.9 112.48 43.9Z" fill="#9003FF"/>
</g>
<defs>
<clipPath id="clip0_1523_2585">
<rect width="119.36" height="122.88" fill="white"/>
</clipPath>
</defs>
</svg>
