<svg width="123" height="102" viewBox="0 0 123 102" fill="none" xmlns="http://www.w3.org/2000/svg">
<g clip-path="url(#clip0_1523_2588)">
<path fill-rule="evenodd" clip-rule="evenodd" d="M61.44 0L67.32 4.77L74.8 3.57L77.49 10.65L84.57 13.34L83.37 20.82L88.14 26.7L83.37 32.58L84.57 40.06L77.49 42.75L74.8 49.83L67.32 48.63L61.44 53.4L55.56 48.63L48.08 49.83L45.39 42.75L38.31 40.06L39.51 32.58L34.74 26.7L39.51 20.82L38.31 13.34L45.39 10.65L48.08 3.57L55.56 4.77L61.44 0ZM66.41 84.78H88.32C90.08 83.03 92.01 81.21 93.96 79.36C98.07 75.47 102.36 71.41 106.77 66.33C111.81 60.52 112.35 58.51 113.88 52.82C114.17 51.75 114.49 50.55 114.91 49.06L117.53 39.85L117.56 39.75C118.96 35.65 119.07 32.94 118.49 31.38C118.31 30.9 118.08 30.58 117.81 30.41C117.6 30.27 117.32 30.22 117.03 30.25C116.35 30.32 115.58 30.75 114.88 31.52L107.1 50.05C107.03 50.22 106.93 50.38 106.82 50.52C106.36 51.35 105.74 52.16 104.94 52.93L91.14 68.32C90.39 69.16 89.1 69.23 88.27 68.48C87.43 67.73 87.36 66.44 88.11 65.61C89.98 63.53 104.48 49.3 103.74 46.11C102.82 42.18 92.94 52.27 91.76 53.31L91.73 53.34C85.94 58.82 83.45 60.12 78.91 62.49C77.96 62.99 76.92 63.53 75.63 64.23C75.12 64.51 74.62 64.85 74.13 65.22C73.61 65.62 73.11 66.03 72.64 66.43C70.24 68.45 68.98 70.09 68.26 71.9C67.51 73.78 67.24 76.07 66.87 79.21C66.72 80.47 66.61 81.73 66.52 82.98C66.47 83.59 66.44 84.19 66.41 84.78ZM56.47 84.78H34.55C32.79 83.03 30.86 81.21 28.9 79.36C24.79 75.47 20.5 71.41 16.09 66.33C11.05 60.52 10.51 58.51 8.98003 52.82C8.69003 51.75 8.37003 50.55 7.95003 49.06L5.33003 39.85L5.30003 39.75C3.90003 35.65 3.79003 32.94 4.37003 31.38C4.55003 30.9 4.78003 30.58 5.05003 30.41C5.26003 30.27 5.54003 30.22 5.83003 30.25C6.51003 30.32 7.28003 30.75 7.98003 31.52L15.76 50.05C15.83 50.22 15.93 50.38 16.04 50.52C16.5 51.35 17.12 52.16 17.92 52.93L31.72 68.32C32.47 69.16 33.76 69.23 34.59 68.48C35.43 67.73 35.5 66.44 34.75 65.61C32.9 63.52 18.4 49.29 19.14 46.1C20.06 42.17 29.94 52.26 31.12 53.3L31.15 53.33C36.94 58.81 39.43 60.11 43.97 62.48C44.92 62.98 45.96 63.52 47.25 64.22C47.76 64.5 48.26 64.84 48.75 65.21C49.27 65.61 49.77 66.02 50.24 66.42C52.64 68.44 53.9 70.08 54.62 71.89C55.37 73.77 55.64 76.06 56.01 79.2C56.16 80.46 56.27 81.72 56.36 82.97C56.41 83.59 56.44 84.19 56.47 84.78ZM29.45 85.48C29.14 85.84 28.95 86.31 28.95 86.82V98.96C28.95 100.09 29.87 101 30.99 101H58.57C59.7 101 60.61 100.08 60.61 98.96V86.71C60.61 85.41 60.53 84.01 60.44 82.71C60.35 81.38 60.23 80.06 60.08 78.75C59.68 75.32 59.38 72.81 58.42 70.4C57.43 67.93 55.84 65.8 52.89 63.31C52.35 62.85 51.8 62.39 51.22 61.96C50.61 61.5 49.95 61.06 49.21 60.65C48.01 60 46.89 59.41 45.87 58.87C41.67 56.67 39.37 55.47 33.96 50.35C33.92 50.31 33.87 50.27 33.83 50.24L28.61 45.63C25.97 42.54 20.74 38.86 16.93 42.2C14.9 37.37 12.9 26.84 6.26003 26.19C5.05003 26.07 3.88003 26.33 2.86003 26.99C1.89003 27.62 1.09003 28.6 0.590029 29.95C-0.289971 32.3 -0.269971 35.95 1.45003 41L4.05003 50.15C4.43003 51.47 4.76003 52.74 5.07003 53.86C6.77003 60.21 7.37003 62.46 13.04 68.98C17.53 74.15 21.93 78.31 26.14 82.3C27.23 83.36 28.33 84.41 29.45 85.48ZM33.35 88.86C33.62 88.92 33.9 88.92 34.18 88.86H56.52V96.92H33.03V88.86H33.35ZM93.43 85.48C93.74 85.84 93.93 86.31 93.93 86.82V98.96C93.93 100.09 93.02 101 91.89 101H64.32C63.19 101 62.28 100.08 62.28 98.96V86.71C62.28 86.64 62.28 86.56 62.29 86.49C62.32 85.18 62.37 83.91 62.45 82.71C62.54 81.38 62.66 80.06 62.81 78.75C63.21 75.32 63.51 72.81 64.47 70.4C65.46 67.93 67.05 65.8 70 63.31C70.54 62.85 71.09 62.39 71.67 61.96C72.28 61.5 72.94 61.06 73.68 60.65C74.88 60 76 59.41 77.02 58.87C81.22 56.67 83.52 55.47 88.93 50.35C88.97 50.31 89.02 50.27 89.06 50.24L94.28 45.63C96.92 42.54 102.15 38.86 105.96 42.2C106.95 39.83 110.37 30.55 111.55 29.13C113.01 27.38 114.86 26.36 116.63 26.18C117.84 26.06 119.01 26.32 120.03 26.98C121 27.61 121.8 28.59 122.3 29.94C123.18 32.29 123.16 35.94 121.44 40.99L118.84 50.14C118.46 51.46 118.13 52.73 117.82 53.85C116.12 60.2 115.52 62.45 109.85 68.97C105.36 74.14 100.97 78.3 96.75 82.29C95.65 83.36 94.55 84.41 93.43 85.48ZM89.53 88.86C89.26 88.92 88.98 88.92 88.7 88.86H66.36V96.92H89.85V88.86H89.53ZM61.44 17.18L64.19 23.9L71.44 24.44L65.9 29.13L67.63 36.19L61.45 32.36L55.27 36.19L57 29.14L51.44 24.45L58.69 23.91L61.44 17.19V17.18ZM61.44 11.61C69.77 11.61 76.52 18.37 76.52 26.69C76.52 35.02 69.76 41.77 61.44 41.77C53.11 41.77 46.36 35.01 46.36 26.69C46.36 18.37 53.11 11.61 61.44 11.61Z" fill="#FFCC08"/>
</g>
<defs>
<clipPath id="clip0_1523_2588">
<rect width="122.88" height="101.01" fill="white"/>
</clipPath>
</defs>
</svg>
