<svg width="121" height="123" viewBox="0 0 121 123" fill="none" xmlns="http://www.w3.org/2000/svg">
<g clip-path="url(#clip0_1523_2591)">
<path d="M18.9996 70.1501C14.2496 71.1501 9.33961 71.2501 4.57961 66.3601C1.39961 63.1001 -0.190385 58.2301 -0.000385316 53.1301C12.1696 67.2801 26.9996 49.7901 8.99961 40.7001C17.6896 36.5801 25.8896 40.4501 30.2396 48.4601C32.2996 52.2401 33.5296 54.2201 35.0996 55.5701C35.3841 55.8197 35.6847 56.0502 35.9996 56.2601C36.6654 54.3514 38.0208 52.7605 39.7996 51.8001C40.8043 51.2797 41.9182 51.0055 43.0496 51.0001C46.2296 51.0001 50.1896 52.9001 50.8596 56.1401C51.0028 56.0999 51.1509 56.0797 51.2996 56.0801H53.6096C53.7325 56.0649 53.8568 56.0649 53.9796 56.0801C55.2006 56.1923 56.351 56.7022 57.2542 57.5313C58.1575 58.3605 58.7636 59.4632 58.9796 60.6701C59.2014 60.5646 59.444 60.51 59.6896 60.5101H61.9996C62.1225 60.4949 62.2468 60.4949 62.3696 60.5101C65.6796 61.0201 67.0196 63.0601 67.4896 65.6301H67.7496H70.0596C70.1825 65.6149 70.3068 65.6149 70.4296 65.6301C74.2296 66.2201 75.7196 68.7101 76.2996 71.7101C83.2996 70.6401 90.8696 66.4401 98.2996 74.0401C99.9168 75.8214 101.156 77.9124 101.941 80.1865C102.727 82.4606 103.043 84.8704 102.87 87.2701C90.6996 73.1201 75.8696 90.6101 93.8696 99.7001C86.3996 103.24 79.2796 100.87 74.6696 95.0401C74.0401 96.7476 73.2569 98.3944 72.3296 99.9601C71.9496 100.58 71.5596 101.22 71.0596 102.1C71.0544 102.123 71.0544 102.147 71.0596 102.17C70.6669 102.862 70.2328 103.53 69.7596 104.17H71.3596C72.0218 104.173 72.6562 104.437 73.1245 104.905C73.5927 105.374 73.857 106.008 73.8596 106.67V120.28C73.857 120.942 73.5927 121.577 73.1245 122.045C72.6562 122.513 72.0218 122.778 71.3596 122.78H35.1296C34.4674 122.778 33.833 122.513 33.3648 122.045C32.8965 121.577 32.6322 120.942 32.6296 120.28V106.77C32.6322 106.108 32.8965 105.474 33.3648 105.005C33.833 104.537 34.4674 104.273 35.1296 104.27H35.9996C35.5634 103.043 35.2616 101.772 35.0996 100.48L22.6396 80.0701L22.5796 80.0001C21.5936 78.6826 20.7552 77.2607 20.0796 75.7601C19.4973 74.497 19.1322 73.1447 18.9996 71.7601C18.9594 71.2376 18.9594 70.7127 18.9996 70.1901V70.1501ZM111 36.8601C110.929 36.5904 110.803 36.3383 110.63 36.1201C110.48 35.9224 110.284 35.7644 110.06 35.6601C109.846 35.5339 109.607 35.4586 109.36 35.4401C109.103 35.4328 108.847 35.4631 108.6 35.5301H108.54L101.18 37.7701C100.489 37.9946 99.7413 37.9612 99.0738 37.6762C98.4063 37.3912 97.8648 36.8739 97.5496 36.2201C97.1696 35.5801 96.7996 34.9501 96.3496 34.2201C95.8996 33.4901 95.3496 32.8401 94.9596 32.2201C94.5696 31.6001 93.9996 31.0001 93.3996 30.3801C92.7996 29.7601 92.3996 29.2401 91.7096 28.5501C91.2691 28.0827 90.9852 27.4897 90.8974 26.8534C90.8096 26.2172 90.9222 25.5694 91.2196 25.0001L95.1296 17.6501C95.2638 17.4338 95.3454 17.1891 95.368 16.9356C95.3906 16.682 95.3534 16.4268 95.2596 16.1901C95.1951 15.957 95.0901 15.737 94.9496 15.5401C94.7842 15.3345 94.5761 15.1673 94.3396 15.0501L85.0796 10.1201C84.8652 10.0044 84.6366 9.91696 84.3996 9.86014C84.1223 9.85478 83.8457 9.89188 83.5796 9.97015C83.3503 10.0233 83.1396 10.1373 82.9696 10.3001C82.764 10.4655 82.5968 10.6737 82.4796 10.9101L78.8796 17.6601C78.5375 18.3033 77.9818 18.807 77.3083 19.0845C76.6347 19.362 75.8854 19.3958 75.1896 19.1801C74.3696 18.9701 73.5996 18.7701 72.9196 18.6301C72.2396 18.4901 71.3796 18.3501 70.5596 18.2401C69.7634 18.1355 68.9624 18.0721 68.1596 18.0501C67.3196 17.9901 66.5396 18.0501 65.7896 17.9901C65.1176 18.0156 64.4565 17.8145 63.9124 17.4192C63.3684 17.0239 62.973 16.4572 62.7896 15.8101L60.2896 7.71014C60.2896 7.65014 60.2896 7.65014 60.2896 7.61014C60.2219 7.37683 60.1209 7.15453 59.9896 6.95014C59.6522 6.60802 59.2072 6.39259 58.7296 6.34014C58.4516 6.31742 58.1719 6.35494 57.9096 6.45014L47.9996 9.48014C47.7296 9.54464 47.477 9.66753 47.2596 9.84015C47.0633 9.99363 46.9029 10.1882 46.7896 10.4101C46.6614 10.6255 46.5892 10.8696 46.5796 11.1201C46.5679 11.3734 46.5983 11.6269 46.6696 11.8701V11.9201L48.9196 19.2701C49.1291 19.9635 49.0875 20.7084 48.8022 21.3741C48.5169 22.0398 48.0061 22.5837 47.3596 22.9101C46.7196 23.2801 46.0896 23.6501 45.3596 24.1101C44.6296 24.5701 43.9796 25.0601 43.3596 25.5001C42.7396 25.9401 42.0596 26.5001 41.4496 27.0401C40.8396 27.5801 40.2996 28.0401 39.6196 28.7401C39.1471 29.1864 38.5462 29.4728 37.902 29.559C37.2578 29.6451 36.6028 29.5266 36.0296 29.2201L28.6896 25.3101C28.4586 25.1816 28.203 25.1032 27.9396 25.0801C27.7078 25.0792 27.4765 25.1026 27.2496 25.1501C27.0214 25.2005 26.8108 25.311 26.6396 25.4701C26.4311 25.6367 26.2635 25.8488 26.1496 26.0901L25.7496 26.8301C23.5334 26.4015 21.2683 26.2837 19.0196 26.4801L20.7996 23.1301C21.3052 22.1827 21.9835 21.3382 22.7996 20.6401C23.6335 19.9677 24.5869 19.4588 25.6096 19.1401C26.6371 18.8194 27.7182 18.7072 28.7896 18.8101C29.843 18.9545 30.8603 19.2936 31.7896 19.8101L37.2196 22.7101L37.6196 22.3801C38.3196 21.7701 39.0696 21.1901 39.8196 20.6001C40.5696 20.0101 41.3796 19.4201 42.1196 18.9401L42.3796 18.7501L40.8796 13.7001C40.5419 12.6797 40.4293 11.5982 40.5496 10.5301C40.643 9.4578 40.9561 8.41617 41.4696 7.47014C41.9596 6.52109 42.6406 5.68356 43.4696 5.01014C44.3031 4.33143 45.261 3.8219 46.2896 3.51014L56.2796 0.410145C57.2949 0.0786045 58.3632 -0.0604448 59.4296 0.000144697C60.5027 0.0897648 61.5451 0.403161 62.4896 0.920145C63.4521 1.44588 64.3043 2.15208 64.9996 3.00014C65.6618 3.82458 66.1362 4.78354 66.3896 5.81014L68.2196 11.6901C68.3626 11.7047 68.5066 11.7047 68.6496 11.6901C69.5496 11.7401 70.4796 11.8501 71.4596 11.9401C72.4396 12.0301 73.3296 12.2201 74.2696 12.4001C74.405 12.4067 74.5377 12.4407 74.6596 12.5001L77.1196 7.87014C77.6135 6.92281 78.2959 6.08642 79.1247 5.41232C79.9536 4.73823 80.9115 4.24065 81.9396 3.95014H81.9996C83.0042 3.63557 84.0627 3.53007 85.1096 3.64014C86.1563 3.74722 87.1738 4.04907 88.1096 4.53014L97.3596 9.47015C98.3075 9.9751 99.1521 10.6535 99.8496 11.4701C100.542 12.2946 101.053 13.2554 101.35 14.2901C101.671 15.314 101.783 16.392 101.68 17.4601C101.541 18.5149 101.202 19.5334 100.68 20.4601L97.7796 25.9001C97.8896 26.0101 98.0096 26.1801 98.1196 26.2901C98.7196 27.0001 99.3096 27.7401 99.8896 28.4901C100.47 29.2401 101.08 30.0501 101.55 30.7901L101.74 31.0601L106.79 29.5501C107.811 29.2155 108.892 29.1063 109.96 29.2301C111.03 29.3248 112.071 29.6343 113.02 30.1401C113.97 30.6282 114.808 31.3094 115.48 32.1401V32.2201C116.158 33.0536 116.668 34.0115 116.98 35.0401L119.98 44.9501H120.03C120.334 45.9639 120.452 47.0243 120.38 48.0801C120.285 49.1523 119.972 50.1938 119.46 51.1401C118.952 52.0778 118.274 52.9122 117.46 53.6001C116.63 54.2674 115.664 54.7452 114.63 55.0001L108.75 56.8301C108.75 56.9801 108.75 57.1501 108.75 57.3001C108.75 58.2101 108.6 59.1301 108.51 60.0101C108.51 60.0101 108.51 60.1201 108.51 60.1601C108.391 61.1153 108.22 62.0633 108 63.0001L107.93 63.3401L112.6 65.8301C113.556 66.3132 114.398 66.9951 115.07 67.8301C115.733 68.6551 116.226 69.6034 116.52 70.6201V70.6901C116.834 71.6913 116.94 72.7465 116.83 73.7901C116.724 74.8384 116.418 75.8568 115.93 76.7901L115.19 78.1801L113.87 77.4701C112.884 74.6546 111.415 72.0321 109.53 69.7201C109.39 69.5301 109.24 69.3501 109.08 69.1701C106.964 66.6448 104.406 64.5267 101.53 62.9201C101.62 62.5501 101.71 62.1701 101.79 61.7901C101.92 61.0401 102.07 60.2501 102.16 59.3701C102.16 59.3701 102.16 59.2601 102.16 59.2201C102.27 58.4101 102.33 57.6801 102.39 56.9501C102.45 56.2201 102.48 55.3601 102.46 54.5801C102.434 53.9081 102.635 53.247 103.031 52.703C103.426 52.1589 103.993 51.7635 104.64 51.5801L112.73 49.0801C112.73 49.0801 112.8 49.0801 112.84 49.0801C113.071 49.0145 113.29 48.9133 113.49 48.7801C113.666 48.6304 113.807 48.4423 113.9 48.2301C114.019 48.0109 114.09 47.769 114.11 47.5201C114.132 47.2421 114.095 46.9624 114 46.7001L111 36.8001V36.8601ZM76.9996 33.7701C78.4016 34.5048 79.7194 35.39 80.9296 36.4101C82.1396 37.4054 83.2453 38.5212 84.2296 39.7401C85.1579 40.9382 85.9936 42.2052 86.7296 43.5301C87.4462 44.8427 88.0227 46.227 88.4496 47.6601C88.9028 49.103 89.1913 50.5924 89.3096 52.1001C89.4745 53.609 89.4745 55.1313 89.3096 56.6401C89.3096 56.7501 89.3096 56.8301 89.3096 56.9001C89.1882 58.1735 88.9607 59.4346 88.6296 60.6701C86.9896 60.8301 85.3596 61.0901 83.7496 61.3801L82.2696 60.5901C82.3996 60.2501 82.5096 59.9001 82.6196 59.5401C82.9227 58.5138 83.1369 57.4633 83.2596 56.4001C83.2495 56.3272 83.2495 56.2531 83.2596 56.1801C83.375 55.0364 83.375 53.8839 83.2596 52.7401C83.1545 51.6465 82.9469 50.565 82.6396 49.5101C82.3241 48.4663 81.8948 47.4603 81.3596 46.5101C80.8145 45.4956 80.175 44.5347 79.4496 43.6401C78.7199 42.7409 77.8988 41.9199 76.9996 41.1901C75.1653 39.7004 73.0599 38.5797 70.7996 37.8901C69.7733 37.587 68.7227 37.3729 67.6596 37.2501C67.587 37.2644 67.5123 37.2644 67.4396 37.2501C66.2954 37.1448 65.1439 37.1448 63.9996 37.2501C62.9056 37.3586 61.8242 37.5696 60.7696 37.8801C59.7258 38.1957 58.7197 38.6249 57.7696 39.1601C56.7553 39.7017 55.7943 40.3379 54.8996 41.0601C54.0117 41.7846 53.1977 42.5952 52.4696 43.4801C52.2396 43.7501 52.0096 44.0401 51.7896 44.3501L46.3296 41.4401C46.7657 40.7798 47.2398 40.1454 47.7496 39.5401C48.7183 38.3389 49.8073 37.2398 50.9996 36.2601C52.1951 35.3253 53.4624 34.486 54.7896 33.7501C56.1358 33.0379 57.5452 32.4521 58.9996 32.0001C60.4292 31.5583 61.9002 31.2634 63.3896 31.1201C64.9021 30.9602 66.4272 30.9602 67.9396 31.1201C68.0396 31.1201 68.1296 31.1701 68.1896 31.1201C69.663 31.2611 71.1196 31.5424 72.5396 31.9601C74.0536 32.4241 75.5229 33.0232 76.9296 33.7501L76.9996 33.7701ZM39.1096 57.7701V57.8701V58.0001V58.2101V58.3201V58.4301V58.7701V59.0001V59.1201V59.3501V59.4801V59.6101V60.0001V60.1301V60.2701V60.5201V79.0001C39.1275 79.231 39.0974 79.463 39.0213 79.6817C38.9452 79.9004 38.8248 80.101 38.6675 80.2709C38.5102 80.4408 38.3195 80.5764 38.1073 80.6691C37.8952 80.7618 37.6662 80.8097 37.4346 80.8097C37.2031 80.8097 36.974 80.7618 36.7619 80.6691C36.5497 80.5764 36.359 80.4408 36.2017 80.2709C36.0445 80.101 35.924 79.9004 35.8479 79.6817C35.7718 79.463 35.7418 79.231 35.7596 79.0001V75.9001C35.6718 75.8504 35.5881 75.7936 35.5096 75.7301L31.7996 73.1601L27.4596 69.5901C27.0164 69.2166 26.5255 68.9039 25.9996 68.6601H24.8696C24.3906 68.5404 23.8871 68.5613 23.4196 68.7201C23.2407 68.7958 23.0786 68.9064 22.943 69.0455C22.8073 69.1846 22.7008 69.3494 22.6296 69.5301H22.5296C22.3253 70.2136 22.2573 70.9305 22.3296 71.6401C22.4324 72.6459 22.7063 73.6267 23.1396 74.5401C23.7185 75.767 24.4294 76.9272 25.2596 78.0001C25.2596 78.0001 25.3296 78.1001 25.3596 78.1601L38.0596 98.9201C38.2135 99.1469 38.3097 99.4078 38.3396 99.6801C38.4478 101.285 38.8942 102.85 39.6496 104.27H64.9996C66.2789 103.299 67.3302 102.06 68.0796 100.64C68.0961 100.608 68.1162 100.578 68.1396 100.55C68.4996 99.9301 68.9796 99.1401 69.4496 98.3701C70.6839 96.2251 71.6447 93.934 72.3096 91.5501V91.4901V91.3901V91.3301V91.2301V91.1601V91.0601L72.3696 90.8601V90.7601V90.6701V90.5701V90.5001V90.4001V90.3001V90.2001V90.0001V89.9001V89.8101V89.7101V89.6101V89.5301V89.4301V89.3601V89.2601V89.1601V89.0601V88.9901V88.8901V88.8101V88.7201V88.6201V88.5301V88.4301V88.3301V88.2401V87.9501V87.8501V87.7501V87.6601V87.5601V87.4701V87.3701V86.5301V85.5301L72.2396 79.8301C72.2347 79.7502 72.2347 79.6701 72.2396 79.5901C72.2396 79.5101 72.2396 78.9701 72.2396 78.2501V78.0701V76.8401V76.6501V75.3601V75.1701V74.1001V73.9301V73.7501V73.5601V73.4701V72.8301V72.7501V72.6601V72.5701V72.4801V72.4101V72.3201V72.2401V72.1501V72.0001C72.1187 71.2661 71.7776 70.5862 71.2615 70.0504C70.7454 69.5146 70.0786 69.1484 69.3496 69.0001H67.7396C67.7396 69.4701 67.7396 69.9301 67.7396 70.4001V70.5001V70.5801V71.0001V71.1001V71.1701V71.2201V71.2701V71.3201C67.6796 72.2501 67.6296 73.1601 67.6296 74.0201C67.6296 74.4657 67.4526 74.893 67.1376 75.2081C66.8225 75.5231 66.3952 75.7001 65.9496 75.7001C65.504 75.7001 65.0767 75.5231 64.7617 75.2081C64.4466 74.893 64.2696 74.4657 64.2696 74.0201C64.2696 73.1601 64.3396 72.1601 64.3996 71.1201V70.7901V70.6201V70.4701V70.1401V69.9701V69.8201V69.6501V70.2001V69.8601V69.5301V69.2001V69.0001C64.3996 66.4801 63.9496 64.2901 61.9196 63.9201H59.6996C59.5801 63.936 59.4591 63.936 59.3396 63.9201C59.3396 64.8601 59.3396 65.8401 59.2596 66.7901V67.7901C59.1996 68.7201 59.1496 69.6201 59.1496 70.4801C59.1496 70.9257 58.9726 71.353 58.6576 71.6681C58.3425 71.9831 57.9152 72.1601 57.4696 72.1601C57.0241 72.1601 56.5967 71.9831 56.2817 71.6681C55.9666 71.353 55.7896 70.9257 55.7896 70.4801C55.7896 69.6201 55.8596 68.6201 55.9196 67.5801V67.4101V67.2601V67.1001V66.9301V66.7601V66.5901V66.2701V66.1101V65.9401V65.8001V65.6301V65.4601V65.3901C55.9996 62.5501 55.6896 59.9301 53.4496 59.5201H51.2896C51.1441 59.5212 50.9993 59.501 50.8596 59.4601V65.9501C50.8596 66.3957 50.6826 66.823 50.3676 67.1381C50.0525 67.4531 49.6252 67.6301 49.1796 67.6301C48.7341 67.6301 48.3067 67.4531 47.9917 67.1381C47.6766 66.823 47.4996 66.3957 47.4996 65.9501V57.7501C47.4996 55.4301 45.1996 54.4301 43.0496 54.4301C42.4447 54.4315 41.8486 54.5754 41.3096 54.8501C40.195 55.5184 39.3844 56.5944 39.0496 57.8501L39.1096 57.7701ZM35.2896 70.0001L33.7096 69.3501C32.9915 69.0575 32.2569 68.807 31.5096 68.6001L33.9196 70.6001L35.2896 71.7201V70.0001Z" fill="#00D622"/>
</g>
<defs>
<clipPath id="clip0_1523_2591">
<rect width="120.41" height="122.88" fill="white"/>
</clipPath>
</defs>
</svg>
