<svg width="114" height="123" viewBox="0 0 114 123" fill="none" xmlns="http://www.w3.org/2000/svg">
<g clip-path="url(#clip0_1525_2604)">
<path fill-rule="evenodd" clip-rule="evenodd" d="M70.1203 40.9607L72.9803 43.8207C73.7303 44.5707 73.7303 45.8107 72.9803 46.5607L70.6703 48.8707C71.3103 50.0607 71.7903 51.3407 72.1003 52.6807H75.0903C76.1603 52.6807 77.0303 53.5507 77.0303 54.6207V58.6707C77.0303 59.7407 76.1603 60.6107 75.0903 60.6107H71.8303C71.4303 61.9307 70.8603 63.1707 70.1403 64.3207L72.2503 66.4307C73.0003 67.1807 73.0003 68.4207 72.2503 69.1707L69.3903 72.0307C68.6403 72.7807 67.4003 72.7807 66.6503 72.0307L64.3503 69.7307C63.1603 70.3707 61.8803 70.8507 60.5303 71.1607V74.1507C60.5303 75.2207 59.6603 76.0907 58.5903 76.0907H54.5403C53.4703 76.0907 52.6003 75.2207 52.6003 74.1507V70.8907C51.2803 70.4907 50.0403 69.9207 48.8903 69.2007L46.8003 71.3007C46.0503 72.0507 44.8103 72.0507 44.0603 71.3007L41.2003 68.4407C40.4503 67.6907 40.4503 66.4507 41.2003 65.7007L43.5003 63.4007C42.8603 62.2107 42.3803 60.9307 42.0703 59.5907H39.0803C38.0203 59.5907 37.1403 58.7207 37.1403 57.6507V53.6007C37.1403 52.5307 38.0103 51.6607 39.0803 51.6607H42.3403C42.7403 50.3407 43.3103 49.1007 44.0303 47.9507L41.9203 45.8407C41.1703 45.0907 41.1703 43.8507 41.9203 43.1007L44.7803 40.2407C45.5303 39.4907 46.7703 39.4907 47.5203 40.2407L49.8303 42.5507C51.0203 41.9107 52.3003 41.4307 53.6403 41.1207V38.1307C53.6403 37.0607 54.5103 36.1907 55.5803 36.1907H59.6303C60.7003 36.1907 61.5703 37.0607 61.5703 38.1307V41.3907C62.8903 41.7907 64.1303 42.3607 65.2803 43.0807L67.3903 40.9707C68.1403 40.2007 69.3703 40.2007 70.1203 40.9607ZM44.1303 102.071C42.9903 102.101 41.9903 101.261 41.8303 100.111C41.6603 98.9107 42.4703 97.8007 43.6503 97.5707C42.3503 90.2007 38.8003 86.1407 35.0503 81.8507C32.1303 78.5107 29.1003 75.0407 26.7103 69.9307C24.3603 64.9007 23.0703 59.7007 23.1103 54.3007C23.1603 48.9007 24.5303 43.3407 27.5103 37.5907C27.5303 37.5507 27.5503 37.5207 27.5703 37.4807C31.4803 30.8607 36.9503 26.4407 43.0403 23.9607C48.1503 21.8707 53.7003 21.1607 59.1403 21.6607C64.5603 22.1607 69.8703 23.8607 74.5103 26.6007C80.4103 30.0907 85.2603 35.2707 87.9303 41.8107C89.3703 45.3507 90.3503 49.3007 90.4703 53.6307C90.5903 57.9407 89.8503 62.5907 87.8603 67.5107C85.2003 74.1007 81.6803 78.1907 78.3903 82.0207C75.3603 85.5507 72.5403 88.8307 70.9703 93.8607C71.8603 94.0707 72.5603 94.8007 72.7003 95.7607C72.8703 97.0007 72.0003 98.1507 70.7603 98.3207L70.0003 98.4307C69.8603 99.5207 69.7703 100.691 69.7303 101.941L69.9803 101.901C71.2203 101.731 72.3703 102.601 72.5403 103.841C72.7103 105.081 71.8403 106.231 70.6003 106.401L69.8203 106.511C69.8303 106.661 69.8403 106.811 69.8503 106.961C69.9203 107.841 69.9303 108.691 69.8803 109.501L70.0103 109.481C71.2603 109.331 72.3903 110.221 72.5503 111.461C72.7003 112.711 71.8103 113.841 70.5703 114.001L68.8903 114.211C67.6903 117.321 65.5503 119.691 63.0203 121.151C61.2803 122.161 59.3503 122.741 57.4103 122.861C55.4403 122.981 53.4503 122.611 51.6303 121.731C49.5503 120.711 47.6903 119.021 46.3403 116.591C45.6903 116.261 45.2103 115.621 45.1103 114.841C45.0703 114.531 45.1003 114.231 45.1803 113.951C44.7903 112.791 44.5003 111.521 44.3103 110.121L44.2403 110.131C43.0003 110.301 41.8503 109.431 41.6803 108.191C41.5103 106.951 42.3803 105.801 43.6203 105.631L44.1603 105.551C44.1903 104.331 44.1803 103.171 44.1303 102.071ZM2.18028 58.8607C1.01028 58.8907 0.0402799 57.9807 0.000279933 56.8107C-0.0397201 55.6407 0.88028 54.6707 2.05028 54.6307L10.7503 54.3307C11.9203 54.2907 12.8903 55.2107 12.9303 56.3807C12.9703 57.5507 12.0503 58.5207 10.8803 58.5607L2.18028 58.8607ZM110.69 50.2507C111.85 50.1307 112.89 50.9807 113.01 52.1407C113.13 53.3007 112.28 54.3407 111.12 54.4607L102.46 55.3707C101.3 55.4907 100.26 54.6407 100.14 53.4807C100.02 52.3207 100.87 51.2807 102.03 51.1607L110.69 50.2507ZM94.9203 14.7807C95.5703 13.8107 96.8803 13.5507 97.8503 14.2007C98.8203 14.8507 99.0803 16.1607 98.4303 17.1307L93.5903 24.3707C92.9403 25.3407 91.6303 25.6007 90.6603 24.9507C89.6903 24.3007 89.4303 22.9907 90.0803 22.0207L94.9203 14.7807ZM57.6303 2.06071C57.6603 0.890713 58.6303 -0.0292867 59.7903 0.000713306C60.9603 0.0307133 61.8803 1.00071 61.8503 2.16071L61.6303 10.8607C61.6003 12.0307 60.6303 12.9507 59.4703 12.9207C58.3003 12.8907 57.3803 11.9207 57.4103 10.7607L57.6303 2.06071ZM13.8803 15.5307C13.0203 14.7307 12.9803 13.3907 13.7703 12.5407C14.5703 11.6807 15.9103 11.6407 16.7603 12.4307L23.1303 18.3707C23.9903 19.1707 24.0303 20.5107 23.2403 21.3607C22.4403 22.2207 21.1003 22.2607 20.2503 21.4707L13.8803 15.5307ZM47.8803 96.9607L66.3703 94.3307C67.9603 87.6307 71.4203 83.6007 75.1703 79.2507C78.2503 75.6707 81.5303 71.8507 83.9303 65.9107C85.6903 61.5607 86.3403 57.4807 86.2403 53.7207C86.1403 49.9707 85.2803 46.5107 84.0003 43.3807C81.7003 37.7507 77.4903 33.2707 72.3503 30.2307C68.2403 27.8007 63.5503 26.2907 58.7603 25.8607C53.9903 25.4207 49.1203 26.0507 44.6303 27.8807C39.3703 30.0307 34.6403 33.8507 31.2403 39.6007C28.6003 44.7207 27.3803 49.6207 27.3403 54.3307C27.3003 59.0707 28.4503 63.6607 30.5403 68.1307C32.6703 72.6907 35.5103 75.9307 38.2303 79.0507C42.4703 83.9107 46.4803 88.5007 47.8803 96.9607ZM65.6203 99.0307L48.3503 101.481C48.4003 102.581 48.4203 103.731 48.4003 104.951L65.4503 102.531C65.4703 101.301 65.5203 100.131 65.6203 99.0307ZM48.4903 109.531C48.6103 110.451 48.7903 111.291 49.0203 112.071L65.5703 110.031C65.6803 109.171 65.7003 108.261 65.6203 107.291V107.271L65.6103 107.101L48.4903 109.531ZM51.3703 116.371C52.0103 117.041 52.7203 117.561 53.4703 117.921C54.6203 118.481 55.8903 118.711 57.1403 118.641C58.4303 118.561 59.7103 118.171 60.8803 117.491C61.9803 116.851 62.9703 115.961 63.7603 114.841L51.3703 116.371ZM57.0903 48.1707C61.4803 48.1707 65.0503 51.7307 65.0503 56.1307C65.0503 60.5307 61.4903 64.0907 57.0903 64.0907C52.6903 64.0907 49.1303 60.5307 49.1303 56.1307C49.1303 51.7307 52.7003 48.1707 57.0903 48.1707Z" fill="#FFCC08"/>
</g>
<defs>
<clipPath id="clip0_1525_2604">
<rect width="113.02" height="122.88" fill="white"/>
</clipPath>
</defs>
</svg>
