<svg width="64" height="64" viewBox="0 0 64 64" fill="none" xmlns="http://www.w3.org/2000/svg">
<g clip-path="url(#clip0_1525_2601)">
<path d="M24.4629 36.7488C24.9802 37.2236 25.2625 37.8591 25.3062 38.5134C25.3499 39.176 25.1444 39.8575 24.6861 40.4068C25.1278 40.0548 25.6641 39.8729 26.2074 39.8575C26.8582 39.8386 27.5208 40.0595 28.0393 40.5107C28.0464 40.5166 28.07 40.539 28.1078 40.5745L27.672 41.0422L28.1101 40.5733C28.129 40.591 28.1456 40.6099 28.1621 40.6288C28.6558 41.1166 28.9086 41.7485 28.9298 42.3934C28.9499 42.978 28.7787 43.571 28.4231 44.0729C28.7326 43.9123 29.0728 43.8225 29.4165 43.806C30.02 43.7753 30.6413 43.9678 31.1338 44.3789C31.1586 44.3989 31.181 44.419 31.2011 44.4367C31.7043 44.8867 31.97 45.4915 32.0043 46.1127C32.0385 46.7364 31.8389 47.3777 31.4078 47.8938L30.2491 49.284C30.4736 49.4198 30.7003 49.5592 30.9283 49.6998C33.2893 51.1549 35.9327 52.7837 37.9099 50.4214L33.1476 46.8332L34.3051 45.2989L39.4252 49.1576L39.8847 49.0502L39.9756 49.0348C40.6241 48.9474 41.1201 48.7017 41.478 48.312C41.7698 47.9931 41.9894 47.5643 42.1418 47.034L35.6681 42.6698L36.7441 41.0753L43.5095 45.6367C44.3068 45.4312 44.9316 45.1359 45.384 44.7509C45.7218 44.4639 45.9686 44.1166 46.1257 43.708L37.9914 37.8886L39.104 36.3248L47.5879 42.3946C48.1194 42.3851 48.5753 42.2268 48.9403 41.9717C49.2663 41.7438 49.5309 41.4343 49.7222 41.0788C49.9171 40.7174 50.034 40.3122 50.0624 39.9C50.1014 39.3307 49.9726 38.7555 49.6466 38.2736C49.5297 38.2311 49.4198 38.165 49.3254 38.0776C46.5793 35.8027 43.891 33.7582 41.0859 31.9877C38.3244 30.2468 35.4342 28.7586 32.2381 27.5609C31.7397 27.5774 31.3086 27.5739 30.9354 27.5704C29.7035 27.5585 29.4164 27.5562 28.4999 29.3527C27.8172 30.6885 26.9231 31.6889 25.781 32.2381C24.6979 32.759 23.4376 32.857 21.979 32.433C19.8199 31.8058 19.3144 31.2897 19.6947 29.9822C19.7986 29.6231 19.9947 29.2723 20.2522 28.8117C20.3195 28.6912 20.3915 28.5601 20.5699 28.2259C21.6884 26.1199 22.6652 24.4239 23.6207 23.0656C22.6238 22.951 21.8219 22.7892 21.0352 22.5494C20.1648 22.2849 19.3592 21.94 18.3636 21.4663L11.5119 33.8007L14.2178 36.6L15.2478 35.4118C15.7179 34.8708 16.3604 34.5567 17.0242 34.4941C17.6868 34.4315 18.3695 34.6169 18.921 35.074C18.9317 35.0823 18.9258 35.0787 18.9659 35.1141C19.4915 35.5701 19.7974 36.1996 19.8612 36.8492C19.9061 37.3016 19.834 37.7646 19.638 38.1851L20.6844 36.9591L20.6833 36.9579C20.6892 36.9508 20.6963 36.9437 20.7022 36.9366V36.9354C20.7163 36.9189 20.7317 36.9035 20.7482 36.8882C21.2183 36.3768 21.8514 36.098 22.4998 36.0567C23.1648 36.0142 23.8487 36.2209 24.3908 36.6839L24.392 36.6827C24.4002 36.6898 24.4073 36.6968 24.4144 36.7028C24.4321 36.7169 24.4475 36.7323 24.4629 36.7488ZM29.0066 50.7746L27.809 52.2109C27.7901 52.2333 27.7724 52.2546 27.7546 52.2735C27.3176 52.7625 26.7176 53.0211 26.1034 53.0518C25.5011 53.0814 24.8798 52.89 24.3861 52.4778C24.3625 52.4577 24.34 52.4388 24.32 52.4211C23.8168 51.9699 23.5499 51.3664 23.5156 50.7439C23.4896 50.2715 23.5983 49.7884 23.8416 49.3573L23.714 49.5026C23.6987 49.5215 23.7105 49.5049 23.6526 49.5675C23.1719 50.0801 22.5247 50.3435 21.8668 50.3612C21.216 50.3801 20.5522 50.1593 20.0337 49.7081C20.0207 49.6963 20.0077 49.6845 19.9947 49.6715C19.9829 49.6608 19.9734 49.6514 19.964 49.6431L19.9628 49.6443C19.9451 49.6278 19.9274 49.6089 19.912 49.59C19.4183 49.1022 19.1644 48.4703 19.1431 47.8254C19.129 47.3801 19.2246 46.9289 19.429 46.5179C18.9896 46.8947 18.4486 47.1025 17.8959 47.138C17.2321 47.1805 16.5482 46.9726 16.0049 46.5096L16.0037 46.5108C15.9966 46.5049 15.9884 46.4978 15.9813 46.4907C15.9647 46.4765 15.9482 46.4612 15.9328 46.4458C15.4167 45.971 15.1332 45.3344 15.0907 44.6812C15.0458 44.0092 15.2561 43.3182 15.7285 42.7655L16.0935 42.3367C15.6848 42.6544 15.2006 42.8411 14.7057 42.8883C14.0431 42.9509 13.3604 42.7643 12.8088 42.3084H12.8076C12.7934 42.2966 12.7793 42.2836 12.7651 42.2706L12.7627 42.2682C12.2383 41.8123 11.9324 41.1828 11.8686 40.5332C11.8037 39.8776 11.9844 39.2009 12.432 38.6587C12.4438 38.6434 12.4568 38.6292 12.4698 38.6162L12.471 38.615L12.9553 38.0564L10.0521 35.0516L8.87095 37.0808L8.8674 37.0878L8.85087 37.115L8.84378 37.1233C8.45283 37.7658 7.83629 38.1875 7.15596 38.3516C6.48154 38.5146 5.74216 38.4272 5.10436 38.0552L5.09727 38.0481L5.06893 38.0316L5.06066 38.0268L1.32479 35.7615C0.672813 35.3658 0.24761 34.7457 0.0798899 34.0606C-0.0878291 33.378 0.00193617 32.6291 0.381075 31.9783L12.2206 11.6442L12.2241 11.636L12.2407 11.6088L12.2477 11.6017C12.6375 10.958 13.2552 10.5375 13.9356 10.3734C14.61 10.2104 15.3482 10.2978 15.9872 10.6698L15.9942 10.6734L16.0226 10.6899L16.0297 10.697L19.7667 12.9635C20.4175 13.358 20.8439 13.9781 21.0116 14.6632C21.1782 15.347 21.0884 16.0947 20.7093 16.7467L19.0203 19.6487C20.0348 20.1353 20.8156 20.479 21.5916 20.7152C22.5246 20.9999 23.5274 21.1581 25.0262 21.2644L25.0227 21.3022C28.6027 17.4164 32.6929 17.7199 43.4753 18.5207L43.9914 18.5597L43.2899 17.3538C42.9107 16.703 42.821 15.9541 42.9875 15.2714C43.1552 14.5864 43.5816 13.9663 44.2324 13.5706L47.9694 11.3053L47.9765 11.297L48.0049 11.2804L48.012 11.2769C48.651 10.9049 49.3891 10.8175 50.0636 10.9804C50.7439 11.1446 51.3616 11.5663 51.7514 12.2088L51.7585 12.2171L51.775 12.2442L51.7786 12.2513L63.6181 32.5854C63.9972 33.2374 64.087 33.985 63.9192 34.6677C63.7515 35.354 63.3263 35.9729 62.6743 36.3685L58.9385 38.6351L58.9302 38.6387L58.9019 38.6552L58.8948 38.6623C58.257 39.0343 57.5176 39.1217 56.8432 38.9587C56.1628 38.7946 55.5463 38.3741 55.1553 37.7304L55.1483 37.7233L55.1317 37.6961L55.1282 37.6879L53.9116 35.5984L51.4136 37.4882C51.8624 38.2772 52.0396 39.1642 51.9793 40.0288C51.9333 40.7127 51.7384 41.3871 51.4136 41.9883C51.0852 42.5966 50.621 43.1352 50.0388 43.5426C49.4482 43.9549 48.7466 44.2277 47.9529 44.2986C47.686 45.0462 47.2431 45.6828 46.6253 46.2096C45.9497 46.7848 45.0769 47.2124 44.0056 47.4911C43.7717 48.3368 43.4032 49.0455 42.8906 49.6053C42.2363 50.3199 41.3776 50.7687 40.2969 50.9282L39.8469 51.0333C36.8622 55.6078 33.1854 53.3424 29.9208 51.3309C29.6102 51.1396 29.3031 50.9506 29.0066 50.7746ZM7.21382 36.111L19.0474 15.784C19.1703 15.5726 19.1998 15.3328 19.1466 15.1143C19.0958 14.9076 18.9683 14.7198 18.7746 14.6029L15.0458 12.3411L15.0446 12.3434L15.0163 12.3269H15.0174C14.819 12.2147 14.5922 12.1875 14.3855 12.2383C14.1848 12.2867 14.004 12.406 13.8918 12.5856L13.8942 12.5867L13.8777 12.6139L2.04287 32.9397C1.92003 33.1511 1.8905 33.3921 1.94365 33.6094C1.99444 33.8173 2.122 34.0039 2.31689 34.122L6.05394 36.3886H6.05276L6.06575 36.3957L6.06693 36.3933C6.26536 36.5102 6.49568 36.5374 6.70473 36.4866C6.90552 36.4382 7.08623 36.3189 7.19844 36.1394L7.19726 36.1382L7.21261 36.111L7.21382 36.111ZM46.4623 18.9872C46.5355 19.0628 46.5946 19.1502 46.6395 19.2459L47.582 20.9089L56.7853 36.7181H56.7865L56.8018 36.7453L56.8006 36.7465C56.9128 36.926 57.0936 37.0453 57.2943 37.0937C57.5034 37.1445 57.7337 37.1173 57.9321 37.0016L57.9333 37.0039L57.9463 36.9957H57.9451L61.6822 34.7291C61.8771 34.6122 62.0046 34.4244 62.0554 34.2177C62.1086 33.9992 62.079 33.7582 61.9562 33.548L50.1214 13.221L50.1049 13.1938L50.1072 13.1926C49.995 13.0131 49.8143 12.8938 49.6135 12.8454C49.4068 12.7958 49.1801 12.8218 48.9816 12.934H48.9828L48.9545 12.9517L48.9533 12.9493L45.2245 15.21C45.0308 15.3281 44.9032 15.5147 44.8524 15.7226C44.7993 15.9399 44.8288 16.1809 44.9517 16.3923L46.4623 18.9872Z" fill="#FF0000"/>
</g>
<defs>
<clipPath id="clip0_1525_2601">
<rect width="64" height="64" fill="white"/>
</clipPath>
</defs>
</svg>
