<svg width="123" height="72" viewBox="0 0 123 72" fill="none" xmlns="http://www.w3.org/2000/svg">
<g clip-path="url(#clip0_1525_2598)">
<path fill-rule="evenodd" clip-rule="evenodd" d="M91.95 64.6805L93.94 57.0905L92.57 55.5905C91.95 54.6905 91.82 53.9005 92.16 53.2205C92.9 51.7505 94.44 52.0205 95.88 52.0205C97.39 52.0205 99.25 51.7305 99.72 53.6205C99.88 54.2505 99.68 54.9105 99.24 55.5905L97.87 57.0905L99.06 61.6505L106.95 54.7905L111.04 54.8905C109.63 52.0605 107.84 49.6605 105.76 47.4005C109.68 48.9205 113.69 50.4205 116.66 52.2805C118.55 53.4605 119.52 54.3605 120.29 55.7905C121.91 58.8405 122.09 61.5705 122.33 64.8705L122.9 67.7305H100.66L100.68 67.8005H92.17C91.98 69.7505 90.86 70.8805 88.67 71.0405H61.68H34.24C32.04 70.8705 30.92 69.7405 30.74 67.7705L31.5 55.7305C31.71 52.9505 32.49 50.7505 33.76 49.0705C34.6 47.9605 35.64 47.1405 36.79 46.5005C40.44 44.4705 48.96 43.8705 52.27 40.8905L57.34 55.8005L59.89 46.9505L58.64 45.5805C58.08 44.7605 57.95 44.0405 58.27 43.4205C58.95 42.0805 60.35 42.3305 61.66 42.3305C63.03 42.3305 64.72 42.0705 65.15 43.7905C65.29 44.3605 65.11 44.9605 64.71 45.5805L63.46 46.9505L66.01 55.8005L70.6 40.8905C73.91 43.8705 82.44 44.4705 86.08 46.5005C87.23 47.1405 88.28 47.9605 89.11 49.0705C90.38 50.7505 91.16 52.9405 91.37 55.7305L91.95 64.6805ZM15.29 48.2505L18.69 58.2405L20.4 52.3105L19.56 51.3905C19.18 50.8405 19.1 50.3605 19.31 49.9405C19.76 49.0405 20.7 49.2105 21.58 49.2105C22.5 49.2105 23.63 49.0405 23.92 50.1905C24.02 50.5705 23.89 50.9805 23.63 51.3905L22.79 52.3105L24.5 58.2405L27.58 48.2505C28.03 48.6505 28.65 48.9905 29.38 49.2805C29.13 49.8105 28.9 50.3705 28.7 50.9505C28.18 52.4605 27.84 54.1405 27.7 56.0105H27.71C27.71 56.0505 27.7 56.1005 27.7 56.1405L26.96 67.7205H21.61H2.35C0.87 67.6105 0.12 66.8505 0 65.5305L0.51 58.1905C0.65 56.3305 1.18 54.8605 2.03 53.7305C2.59 52.9905 3.29 52.4405 4.06 52.0105C6.5 50.6505 13.07 50.2505 15.29 48.2505ZM13.62 34.0905C13.29 34.1205 13.04 34.1905 12.86 34.3105C12.76 34.3805 12.68 34.4705 12.63 34.5705C12.57 34.6905 12.55 34.8505 12.55 35.0205C12.57 35.5705 12.86 36.3105 13.43 37.1605L13.44 37.1805L15.34 40.2005C16.1 41.4005 16.89 42.6305 17.87 43.5305C18.8 44.3805 19.93 44.9605 21.43 44.9605C23.05 44.9605 24.23 44.3605 25.2 43.4605C26.21 42.5105 27.01 41.2105 27.8 39.9105L29.93 36.4005C30.36 35.4205 30.49 34.8305 30.35 34.5505C30.26 34.3805 29.91 34.3305 29.33 34.3805C28.96 34.4605 28.57 34.3905 28.16 34.1805L29.23 30.9805C25.32 30.9305 22.65 30.2505 19.48 28.2305C18.44 27.5705 18.13 26.8105 17.09 26.8805C16.3 27.0305 15.64 27.3805 15.12 27.9505C14.62 28.4905 14.24 29.2305 13.99 30.1805L14.62 34.0105C14.3 34.2105 13.96 34.2305 13.62 34.0905ZM30.55 33.1405C31.01 33.2805 31.35 33.5405 31.55 33.9505C31.87 34.6005 31.75 35.5705 31.14 36.9505C31.13 36.9805 31.12 37.0005 31.1 37.0305L28.94 40.5905C28.1 41.9705 27.25 43.3505 26.11 44.4205C24.92 45.5405 23.45 46.2805 21.44 46.2705C19.56 46.2705 18.15 45.5505 16.99 44.4905C15.88 43.4705 15.03 42.1705 14.23 40.8905L12.33 37.8705C11.62 36.8105 11.26 35.8505 11.23 35.0505C11.22 34.6605 11.28 34.3105 11.43 34.0105C11.58 33.6805 11.81 33.4105 12.13 33.2005C12.28 33.1005 12.46 33.0105 12.65 32.9405C12.53 31.3205 12.49 29.3205 12.57 27.6405C12.61 27.2305 12.69 26.8205 12.8 26.4105C13.29 24.6805 14.5 23.2805 16.01 22.3205C16.54 21.9805 17.12 21.7005 17.74 21.4805C21.39 20.1605 26.22 20.8805 28.81 23.6805C29.86 24.8205 30.53 26.3305 30.67 28.3305L30.55 33.1405ZM49.65 19.7705C49.23 19.8205 48.9 19.9305 48.66 20.0905C48.51 20.1905 48.39 20.3305 48.32 20.4805C48.24 20.6605 48.2 20.8905 48.2 21.1505C48.22 21.9805 48.66 23.0705 49.52 24.3305L49.54 24.3505L52.37 28.8605C53.5 30.6605 54.68 32.4905 56.14 33.8205C57.53 35.0905 59.22 35.9505 61.44 35.9605C63.86 35.9705 65.62 35.0705 67.06 33.7305C68.57 32.3205 69.77 30.3705 70.95 28.4305L74.13 23.1905C74.77 21.7305 74.97 20.8505 74.76 20.4305C74.63 20.1605 74.07 20.1005 73.13 20.1905C73.06 20.2005 72.99 20.2005 72.92 20.1905C72.53 20.1905 72.11 20.0905 71.65 19.8805L73.08 15.1005C67.24 15.0305 63.25 14.0105 58.53 10.9905C56.98 10.0005 56.51 8.87045 54.96 8.98045C53.79 9.21045 52.8 9.73045 52.02 10.5705C51.27 11.3805 50.7 12.4805 50.33 13.8905L51.34 19.6705C50.74 19.9805 50.18 20.0005 49.65 19.7705ZM75.05 18.3405C75.74 18.5405 76.24 18.9405 76.55 19.5505C77.03 20.5305 76.85 21.9705 75.94 24.0305C75.92 24.0705 75.9 24.1105 75.88 24.1405L72.65 29.4605C71.4 31.5205 70.13 33.5905 68.42 35.1805C66.64 36.8505 64.45 37.9605 61.45 37.9505C58.65 37.9405 56.54 36.8705 54.81 35.2905C53.15 33.7705 51.89 31.8305 50.69 29.9205L47.86 25.4105C46.81 23.8405 46.26 22.3905 46.22 21.2005C46.2 20.6205 46.3 20.1005 46.52 19.6405C46.75 19.1505 47.09 18.7405 47.56 18.4305C47.79 18.2705 48.05 18.1405 48.34 18.0405C48.17 15.6305 48.11 12.6505 48.22 10.1405C48.28 9.53046 48.4 8.92046 48.57 8.31046C49.29 5.72046 51.11 3.64045 53.36 2.21045C54.15 1.71045 55.02 1.29045 55.94 0.960455C61.38 -1.00955 68.6 0.0704551 72.46 4.25045C74.03 5.95045 75.02 8.21045 75.23 11.1905L75.05 18.3405ZM84.88 42.9605L87.38 42.8905L89.45 42.8405C87.03 35.3905 87.84 28.5405 93.67 22.7205C94.66 25.9205 96.87 28.5505 100.64 30.5005C102.44 31.8405 104.19 33.4605 105.87 35.3105C106.17 34.0805 105.03 32.5805 103.64 31.0405C104.92 31.6705 106.1 32.5605 106.93 34.2605C107.9 36.2405 107.88 37.9005 107.57 40.0505C107.42 41.0505 107.18 41.9805 106.83 42.8305H110.28C113.92 35.0405 111.61 23.4905 104.17 18.5905C101.89 17.0905 100.25 17.1405 97.57 17.1505C94.5 17.1505 92.94 17.2505 90.31 18.9805C86.44 21.5405 84.06 25.9705 83.06 32.1205C82.87 35.1905 82.74 40.4905 84.88 42.9605Z" fill="#1EB796"/>
</g>
<defs>
<clipPath id="clip0_1525_2598">
<rect width="122.88" height="71.04" fill="white"/>
</clipPath>
</defs>
</svg>
